<svg xmlns="http://www.w3.org/2000/svg" xmlns:xlink="http://www.w3.org/1999/xlink" width="69.589" height="57.468" viewBox="0 0 69.589 57.468">
  <defs>
    <clipPath id="clip-path">
      <rect id="Rectangle_5133" data-name="Rectangle 5133" width="69.589" height="57.468" transform="translate(0 0)" fill="none"/>
    </clipPath>
  </defs>
  <g id="Group_724" data-name="Group 724" transform="translate(0 -0.004)">
    <g id="Group_721" data-name="Group 721" transform="translate(0 0.004)" clip-path="url(#clip-path)">
      <path id="Path_988" data-name="Path 988" d="M1208.364,666.094c-.907-1.8-2.847-2.153-4.545-2.887a19.778,19.778,0,0,1-5.179-3.341,37.13,37.13,0,0,1-8.142-10.929c-2.113-4.11-2.68-8.721-3.113-13.262-.166-1.74-.128-4.013-1.446-5.348a3.477,3.477,0,0,0-1.42-.856c-.62-1.312-2.485-1.337-3.658-.643a.966.966,0,0,0-.5.94,8.485,8.485,0,0,1-3.385,1.59c-1.654.155-5.407-.949-6.214.948-1.762,1.127-1.632,4.206-1.876,6.1-.356,2.752.3,4.921,1.247,7.523a32.609,32.609,0,0,0,9.773,13.193,44.462,44.462,0,0,0,12.876,8.06,34.388,34.388,0,0,0,7.963,2.042c1.629.2,4.771.4,6.3-.8a1.607,1.607,0,0,0,1.322-2.33" transform="translate(-1139.3 -612.521)" fill="#f7524e"/>
      <path id="Path_989" data-name="Path 989" d="M468.2,958.1a8.341,8.341,0,0,1,3.184-1.225c2.916-.646,5.885-1.03,8.8-1.657,2.406-.517,4.773-1.2,7.138-1.878l10.564-3.038c5.408-1.555,10.87-3.132,15.793-5.859.463-.256,1.032-.526,1.492-.264a1.2,1.2,0,0,1,.5.775c.379,1.468-.5,2.94-1.366,4.182a51.737,51.737,0,0,1-10.77,11.717,72.758,72.758,0,0,1-7.135,4.606,32.809,32.809,0,0,1-4.438,2.329,28.208,28.208,0,0,1-4.761,1.33,100.432,100.432,0,0,1-11.464,1.709,7.358,7.358,0,0,1-3.832-.36c-.09-.367.353-.633.725-.7s.826-.127.976-.474c.181-.419-.248-.842-.323-1.292-.113-.679.575-1.2.833-1.839.416-1.031-.343-2.132-1.057-2.985l-1.688-2.019c-.293-.351-.973-1.417-1.423-1.5-.629-.111-.83,1.078-1.36,1.435-.689.465-1.691.519-1.836-.424a3.166,3.166,0,0,1,1.437-2.57" transform="translate(-454.967 -920.249)" fill="#f7524e"/>
      <path id="Path_990" data-name="Path 990" d="M696.179,1442.786a16.8,16.8,0,0,1-7.3-4.511,22.44,22.44,0,0,1-2.924-3.59,14.221,14.221,0,0,1,0,5.19,6.845,6.845,0,0,1-2.765,4.223,9.263,9.263,0,0,1-4.793,1.454,17.118,17.118,0,0,1-5.3-.583,1.808,1.808,0,0,0-.5,1.263c.075.45.5.874.323,1.292-.15.347-.6.405-.976.474s-.815.335-.725.7a7.36,7.36,0,0,0,3.832.36,100.474,100.474,0,0,0,11.464-1.709,28.2,28.2,0,0,0,4.76-1.33,32.816,32.816,0,0,0,4.438-2.329l1.216-.722c-.25-.058-.5-.116-.747-.185" transform="translate(-654.269 -1398.488)" fill="#f7524e"/>
      <path id="Path_991" data-name="Path 991" d="M46.777,1540.167a11.781,11.781,0,0,1,1.3,2.5,6.977,6.977,0,0,0,2.1,2.479c.36.264.791.575.774,1.021a1.364,1.364,0,0,1-.253.622,3.088,3.088,0,0,0-.5,2.47c.137.418.424.846.274,1.259-.244.672-1.239.5-1.893.8-.517.23-.885.806-1.45.837-.678.037-1.146-.733-1.815-.845-.526-.089-1.1.245-1.58.016-.735-.35-.486-1.565-1.094-2.107a1.807,1.807,0,0,0-1.2-.31l-2.41-.039c-.82-.013-1.451-.695-2.226-.963a5.5,5.5,0,0,1-2.722-2.164,9.431,9.431,0,0,1-1.384-2.478,4.072,4.072,0,0,1-.284-1.587,1.434,1.434,0,0,1,.869-1.264c.68-.228,1.372.264,1.921.725,1.03.864,1.408,1.645,2.438,2.509.553.464,2.58,1.912,3.411,1.688.721-.194.489-1.247.692-1.812.355-.987,1.522-.818,2.38-1.248a11.075,11.075,0,0,0,2.656-2.108" transform="translate(-31.585 -1501.308)" fill="#00a200"/>
      <path id="Path_992" data-name="Path 992" d="M1272.1,21.526a2.642,2.642,0,0,0,1.41-.509,1.331,1.331,0,0,0,.449-.885,1.139,1.139,0,0,0-.474-1.578c-.057-.117-.115-.234-.168-.349-.188-.405-.693-.237-.823.1a7.792,7.792,0,0,0-7.893,4.462,7.743,7.743,0,0,0-.111,5.222c.652,2.226,2.661,4.727.533,6.8a.856.856,0,0,0,.6,1.445,24.627,24.627,0,0,0,5.151-.52,3.5,3.5,0,0,0,2.817-1.5,1,1,0,0,0-.355-1.355c-3.039-1.423-7.254-7.141-4.3-9.983a7.393,7.393,0,0,1,3.162-1.349" transform="translate(-1232.201 -17.515)" fill="#00a200"/>
      <path id="Path_993" data-name="Path 993" d="M1244.942,1310.784a19.318,19.318,0,0,1-4.372-2.667,24.592,24.592,0,0,1-3.5.142,20.975,20.975,0,0,1-6.236-1.2,43.549,43.549,0,0,1-13.458-7.759,45.831,45.831,0,0,1-5.526-5.531q-.442-.52-.869-1.054c.09.259.184.52.281.787a32.609,32.609,0,0,0,9.773,13.193,44.46,44.46,0,0,0,12.876,8.06,34.382,34.382,0,0,0,7.962,2.042c1.629.2,4.771.4,6.3-.8a1.607,1.607,0,0,0,1.322-2.33c-.906-1.8-2.847-2.153-4.545-2.887" transform="translate(-1180.424 -1260.099)" fill="#f7524e"/>
      <path id="Path_994" data-name="Path 994" d="M1977.909,1212.953a8.415,8.415,0,0,0,4.857-1.281l-5.582,7.646c-.381-1.422-1.363-2.6-1.915-3.969-.386-.955-1.014-2.995-.518-3.917a5.935,5.935,0,0,0,3.159,1.521" transform="translate(-1924.75 -1180.867)" fill="#f7524e"/>
      <path id="Path_995" data-name="Path 995" d="M1249.321,164.516a18.236,18.236,0,0,1-1.883-3.28c-.606-1.525,0-2.845.114-4.357a.108.108,0,0,0-.162-.093c-1.76,1.07-1.476,4.067-1.074,5.784a13.7,13.7,0,0,0,1.54,3.432c.412.737.927,1.462,1.278,2.234a.636.636,0,0,0-.122.083c-.472.426-.749.956-1.308,1.3a.939.939,0,0,0,.47,1.736c.816-.027,1.622-.051,2.438-.015a1.1,1.1,0,0,0,1.057-.8c.518-2.334-1.121-4.2-2.348-6.017" transform="translate(-1214.576 -152.817)" fill="#009400"/>
      <path id="Path_996" data-name="Path 996" d="M43.891,1557.678a.321.321,0,0,0-.307.234,7.872,7.872,0,0,1-1.663,3.365,3.057,3.057,0,0,1-.689.569.808.808,0,0,0-.264-.136,4.137,4.137,0,0,1-2.514-1.475.862.862,0,0,0-.933-.38,8.193,8.193,0,0,1-6.928-1.495c-1.593-1.367-2.666-3.4-3.836-5.117-.054-.079-.2-.083-.225.029-.445,2.493,1.441,5.4,3.285,6.939a8.019,8.019,0,0,0,7.151,1.553.6.6,0,0,0-.01.154c.195,2.159,2.71,2.777,4.518,2.168.014,0,.028,0,.043,0a4.473,4.473,0,0,0,2.685-.8c.619-.614.427-1.557.562-2.33.2-1.12.9-3.109-.873-3.279" transform="translate(-25.797 -1513.999)" fill="#009400"/>
      <path id="Path_997" data-name="Path 997" d="M526.275,1656.067a.552.552,0,0,0-.248-.322.769.769,0,0,0-.768.008.549.549,0,0,0-.25.376.465.465,0,0,0,0,.466.66.66,0,0,0,.654.311.841.841,0,0,0,.558-.423.54.54,0,0,0,.054-.416" transform="translate(-511.702 -1613.874)" fill="#50d800"/>
      <path id="Path_998" data-name="Path 998" d="M486.208,1689.08a.234.234,0,0,0-.037.006h0l0,0a.224.224,0,0,0-.178.163.108.108,0,0,0,.062.127.107.107,0,0,0,.135-.044l0-.01h0a.121.121,0,0,0,.137-.1.123.123,0,0,0-.121-.139" transform="translate(-473.721 -1646.464)" fill="#50d800"/>
      <path id="Path_999" data-name="Path 999" d="M1485.716,81.684a.907.907,0,0,0-.677-.065.809.809,0,0,0-.528.512.449.449,0,0,0,.43.565,1.431,1.431,0,0,0,.332-.047,1.1,1.1,0,0,0,.147.028.483.483,0,0,0,.425-.244.941.941,0,0,0,.09-.212.481.481,0,0,0-.219-.538" transform="translate(-1447.032 -79.523)" fill="#50d800"/>
      <path id="Path_1000" data-name="Path 1000" d="M1558.4,86.922a.28.28,0,0,0-.436-.054.578.578,0,0,0-.051.066l-.023.032a.247.247,0,0,0,0,.249.251.251,0,0,0,.213.122h.042a.252.252,0,0,0,.087-.009.274.274,0,0,0,.122-.071q.024-.029.046-.06a.273.273,0,0,0,0-.275" transform="translate(-1518.553 -84.597)" fill="#50d800"/>
      <path id="Path_1001" data-name="Path 1001" d="M1152.755,600.716a2.832,2.832,0,0,1,2.641.864,8.267,8.267,0,0,1,1.9,2.321c.93,1.784.974,3.9,1.216,5.851a43.888,43.888,0,0,0,1.344,7.048,32.1,32.1,0,0,0,17.517,20.214c.659.317,1.7.684,1.786,1.549s-1.027,1.417-1.667,1.716a10.181,10.181,0,0,1-5.871.538,34.135,34.135,0,0,1-5.915-1.585,39.136,39.136,0,0,1-6.015-2.71c-7.5-4.158-14.053-10.455-17.607-18.335a19.114,19.114,0,0,1-1.751-6.232,11.437,11.437,0,0,1,1.061-5.827,5.417,5.417,0,0,1,1.46-2.074,3.543,3.543,0,0,1,2.735-.448,7.473,7.473,0,0,0,5.61-1.308,3.632,3.632,0,0,0,1.434-1.8.493.493,0,0,0-.95-.262c-.2.76-1.086,1.334-1.719,1.711a5.853,5.853,0,0,1-2.863.768,18.261,18.261,0,0,0-3.489-.089,3.808,3.808,0,0,0-2.125,1.424,9.787,9.787,0,0,0-1.318,2.455,11.7,11.7,0,0,0-.787,3.041,15.334,15.334,0,0,0,.795,6.422,33.8,33.8,0,0,0,6.659,11.447,45.921,45.921,0,0,0,10.264,8.713,41.79,41.79,0,0,0,12.312,5.237,15.7,15.7,0,0,0,6.376.455,8.278,8.278,0,0,0,2.9-1.066,2.637,2.637,0,0,0,1.463-2.086,2.448,2.448,0,0,0-1.277-2.006,12.26,12.26,0,0,0-1.22-.609q-.712-.348-1.409-.726a34.146,34.146,0,0,1-4.8-3.132,31.022,31.022,0,0,1-7.5-8.472,32.92,32.92,0,0,1-4.158-11.922c-.181-1.168-.321-2.341-.45-3.516a21.069,21.069,0,0,0-.5-3.086,8.538,8.538,0,0,0-3.561-4.945,3.342,3.342,0,0,0-2.777-.492.493.493,0,0,0,.262.95" transform="translate(-1110.558 -584.516)" fill="#7c190d"/>
      <path id="Path_1002" data-name="Path 1002" d="M1232.161,19.114c1.154-1.207,2.327-2.593,2.165-4.378-.154-1.694-1.236-3.08-1.922-4.582a6.5,6.5,0,0,1-.2-4.83,6.1,6.1,0,0,1,3.026-3.394,7.8,7.8,0,0,1,4.374-.9,6.446,6.446,0,0,1,1.1.083.317.317,0,0,1,.23.158,1.7,1.7,0,0,1,.187.761,3.486,3.486,0,0,1-.022,1.123c-.105.36-.529.363-.84.355a6.239,6.239,0,0,0-2.253.095,4.481,4.481,0,0,0-2.9,3.346,6.681,6.681,0,0,0,1.606,5.372,17.1,17.1,0,0,0,4.044,3.776c.535.343,1.029-.509.5-.85a16.373,16.373,0,0,1-3.7-3.439,5.614,5.614,0,0,1-1.428-4.91,3.269,3.269,0,0,1,3.426-2.461,2.539,2.539,0,0,0,2.144-.406,2.869,2.869,0,0,0,.372-2.318,1.827,1.827,0,0,0-.709-1.376,2.344,2.344,0,0,0-1.222-.266,16.469,16.469,0,0,0-1.773-.056,8.867,8.867,0,0,0-2.343.5,7.962,7.962,0,0,0-3.772,2.637,7.406,7.406,0,0,0-1.392,4.8,7.614,7.614,0,0,0,.721,2.762c.413.889.951,1.715,1.347,2.612a3.7,3.7,0,0,1,.282,2.654,6.79,6.79,0,0,1-1.746,2.442c-.438.458.257,1.156.7.7" transform="translate(-1199.792 -0.004)" fill="#7c190d"/>
      <path id="Path_1003" data-name="Path 1003" d="M381.084,1529.536l-.134-1.254a2.162,2.162,0,0,0-.067-.627q-.24.1-.06.063h.1a5.408,5.408,0,0,0,1.833-.363,5.045,5.045,0,0,0,2.649-2.459l-.773.1c1.045.827,1.516,2.106,2.244,3.182a4.919,4.919,0,0,0,1.356,1.41c.4.26,1.275.406,1.1,1.026a17.271,17.271,0,0,1-.821,1.571,2.373,2.373,0,0,0,.283,2.07c.085.18.252.572-.006.668a1.736,1.736,0,0,1-.562-.032,1.882,1.882,0,0,0-.574.06c-.669.181-1.084.767-1.705,1.025s-1.278-.233-1.81-.491a2.073,2.073,0,0,0-2-.139l.6.077a3.542,3.542,0,0,1-.756-2.345c.02-.634-.965-.633-.985,0a4.585,4.585,0,0,0,1.044,3.042.5.5,0,0,0,.6.077c.518-.289,1.208.252,1.664.469a2.451,2.451,0,0,0,1.933.251c.631-.234,1.134-.969,1.809-1.044a5.063,5.063,0,0,0,1.111-.03,1.1,1.1,0,0,0,.722-.848,1.754,1.754,0,0,0-.141-1.05c-.155-.358-.45-.721-.388-1.131.094-.621.616-1.141.852-1.712a1.441,1.441,0,0,0-.373-1.753,7,7,0,0,0-.96-.53,3.155,3.155,0,0,1-.8-.692c-1.03-1.2-1.458-2.818-2.732-3.827a.5.5,0,0,0-.773.1,4.121,4.121,0,0,1-2.923,2.271c-.532.1-1.353-.088-1.654.5a2.018,2.018,0,0,0-.015,1.11l.134,1.254c.067.624,1.052.63.985,0" transform="translate(-370.306 -1485.707)" fill="#7c190d"/>
      <path id="Path_1004" data-name="Path 1004" d="M12.056,1517.848a8.93,8.93,0,0,1-7.977-1.512,9.126,9.126,0,0,1-2.408-2.927,6.488,6.488,0,0,1-.678-1.761c-.076-.422.224-.638.518-.9a6.2,6.2,0,0,1,.9-.647h-.5a16.194,16.194,0,0,1,2.3,2.712,9.516,9.516,0,0,0,2.592,2.11,10.034,10.034,0,0,0,6.507,1.149c.624-.1.359-1.051-.262-.95a8.975,8.975,0,0,1-6.07-1.238,8.763,8.763,0,0,1-2.316-2.069,12.92,12.92,0,0,0-2.251-2.565.482.482,0,0,0-.5,0,6.651,6.651,0,0,0-1.488,1.179,1.65,1.65,0,0,0-.308,1.735,9.871,9.871,0,0,0,7.8,6.891,10.1,10.1,0,0,0,4.4-.26.493.493,0,0,0-.262-.95" transform="translate(-0.001 -1471.107)" fill="#7c190d"/>
      <path id="Path_1005" data-name="Path 1005" d="M434.872,1313.631a3.627,3.627,0,0,1,1.495-3.148,8.011,8.011,0,0,1,3.93-1.413c1.362-.2,2.73-.327,4.087-.568,1.428-.254,2.846-.566,4.257-.9,1.513-.359,3.02-.748,4.525-1.139a.493.493,0,0,0-.262-.95c-2.908.756-5.822,1.513-8.782,2.04-2.792.5-6.079.33-8.4,2.2a4.543,4.543,0,0,0-1.832,3.883c.064.624,1.049.631.985,0" transform="translate(-422.922 -1272.557)" fill="#7c190d"/>
      <path id="Path_1006" data-name="Path 1006" d="M1940.252,927.755a45.99,45.99,0,0,0,6.186-2.033q1.5-.613,2.95-1.326c.3-.148,1.064-.709,1.4-.5.352.22.44.862.444,1.234.018,1.537-.951,3.027-1.787,4.248a40.568,40.568,0,0,1-3.153,3.944c-1.142,1.288-2.331,2.533-3.538,3.76-.445.452.251,1.149.7.7a58.645,58.645,0,0,0,6.907-8,8.478,8.478,0,0,0,1.858-4.718c-.027-.865-.458-2.151-1.5-2.207a3.081,3.081,0,0,0-1.483.519q-.812.409-1.641.784a45.145,45.145,0,0,1-7.6,2.644.493.493,0,0,0,.262.95" transform="translate(-1890.702 -899.572)" fill="#7c190d"/>
      <path id="Path_1007" data-name="Path 1007" d="M1026.93,1831.314a65.432,65.432,0,0,0,7.353-1.59,37.915,37.915,0,0,0,5.942-2.117c.573-.269.074-1.118-.5-.85a36.751,36.751,0,0,1-5.846,2.057,65.579,65.579,0,0,1-7.212,1.551c-.624.1-.359,1.048.262.95" transform="translate(-1000.417 -1780.618)" fill="#7c190d"/>
      <path id="Path_1008" data-name="Path 1008" d="M648.978,1972.91a36.4,36.4,0,0,0,9.681-.493c.624-.1.359-1.046-.262-.949a35.424,35.424,0,0,1-9.419.457c-.628-.073-.623.913,0,.985" transform="translate(-632.146 -1921.72)" fill="#7c190d"/>
      <path id="Path_1009" data-name="Path 1009" d="M1248.638,981.508a9.373,9.373,0,0,0,1.585,5.784c.354.522,1.207.03.85-.5a8.486,8.486,0,0,1-1.45-5.287c.038-.633-.947-.631-.985,0" transform="translate(-1217.118 -956.282)" fill="#fff"/>
      <path id="Path_1010" data-name="Path 1010" d="M1355.925,1288.169a.493.493,0,0,0,0-.985.493.493,0,0,0,0,.985" transform="translate(-1321.251 -1254.708)" fill="#fff"/>
      <path id="Path_1011" data-name="Path 1011" d="M910.6,1470.766l2.623-.892a.493.493,0,0,0-.262-.95l-2.623.892a.493.493,0,0,0,.262.95" transform="translate(-887.014 -1431.841)" fill="#fff"/>
      <path id="Path_1012" data-name="Path 1012" d="M1101.224,1438.674a.493.493,0,0,0,0-.985.493.493,0,0,0,0,.985" transform="translate(-1072.977 -1401.416)" fill="#fff"/>
    </g>
  </g>
</svg>
