<svg xmlns="http://www.w3.org/2000/svg" xmlns:xlink="http://www.w3.org/1999/xlink" width="864.283" height="872.224" viewBox="0 0 864.283 872.224">
  <defs>
    <clipPath id="clip-path">
      <rect id="Rectangle_5201" data-name="Rectangle 5201" width="668.435" height="561.146" fill="none"/>
    </clipPath>
  </defs>
  <g id="_6" data-name="6" transform="translate(430.012 72) rotate(48)">
    <g id="Group_805" data-name="Group 805" transform="translate(-62.205 -38.517)" clip-path="url(#clip-path)">
      <path id="Path_1384" data-name="Path 1384" d="M359.284,127.229c13.1.938,52.1,5.433,85.6,35.759,23.44,21.218,34.186,46.579,38.781,59.5,2.47,6.956,3.232,14.518,4.786,21.8a99.46,99.46,0,0,1-.122,28.827c-2.3,10.231-4.029,20.631-7.008,30.661-12.6,42.426-41.03,72.867-75.774,98.233-9.61,7.015-19.912,13.081-29.9,19.58-15.759-1.976-25.839-11.794-33.835-24.5,13.949-13.021,31.341-21.151,46.357-32.8,24.1-18.692,43.331-40.5,53.724-69.547,2.69-7.519,4.359-15.238,6.1-22.975a78.186,78.186,0,0,0-.091-28.529c-12.61-45.756-45.138-67.869-89.752-75.624a78.875,78.875,0,0,0-28.9.048c-60.872,8.123-93.624,62.021-101.637,115.947a75.968,75.968,0,0,0,.217,29.553C242,386.742,285.162,439.12,348.347,476.189c49.659,29.131,104.528,38.557,161.278,39.378,16.279.236,32.563.072,48.854-.072,8.775-.186,17.625.991,26.228-1.774,21.621.146,42.586-7.025,64.31-5.738,5.45.322,11.085-.348,15.644,3.681v38.18c-30.6,3.506-63.723,6.065-99.093,7.065-27.24.769-53.155.539-77.591-.408-20.779-2.965-41.762-4.206-62.369-8.693C373.048,536.362,324.943,515.663,283.6,480.67c-7.836-6.633-15.016-14.043-22.5-21.094-3.387-.32-8.333-.852-14.265-1.716-21.934-3.2-85.74-13.334-144.447-62.3,0,0-67.613-55.115-93.233-155.506a310.278,310.278,0,0,1-8.075-45.706,517.561,517.561,0,0,1,2.4-59.939A522.979,522.979,0,0,1,34.738,1H70.53c2.354,5.43-.637,10.04-2.4,14.763-13.9,37.258-24.7,75.287-28.775,115.009-2.375,17.945-1.583,35.91-.42,53.855,5.013,58.97,27.457,110.913,65.381,155.809,17.024,20.153,35.853,38.131,57.894,52.023a176.831,176.831,0,0,0,44.959,20.324c3.619,1.053,8.28,4.359,11.025.673,2.712-3.643-2.146-7.02-3.74-10.429-4.714-10.083-10.09-19.84-15.408-29.629-4.853-16.465-13.257-32.129-11.333-50.122-1.244-26.892-2.315-54.105,7.144-79.67,20.332-54.95,52.695-98.668,113.639-113.159,6.459-1.537,13.112-2.256,19.673-3.354a118.6,118.6,0,0,1,31.117.134" transform="translate(1.387 1.388)" fill="#eb2185"/>
      <path id="Path_1385" data-name="Path 1385" d="M359.284,127.229c13.1.938,52.1,5.433,85.6,35.759,23.44,21.218,34.186,46.579,38.781,59.5,2.47,6.956,3.232,14.518,4.786,21.8a99.46,99.46,0,0,1-.122,28.827c-2.3,10.231-4.029,20.631-7.008,30.661-12.6,42.426-41.03,72.867-75.774,98.233-9.61,7.015-19.912,13.081-29.9,19.58-15.759-1.976-25.839-11.794-33.835-24.5,13.949-13.021,31.341-21.151,46.357-32.8,24.1-18.692,43.331-40.5,53.724-69.547,2.69-7.519,4.359-15.238,6.1-22.975a78.186,78.186,0,0,0-.091-28.529c-12.61-45.756-45.138-67.869-89.752-75.624a78.875,78.875,0,0,0-28.9.048c-60.872,8.123-93.624,62.021-101.637,115.947a75.968,75.968,0,0,0,.217,29.553C242,386.742,285.162,439.12,348.347,476.189c49.659,29.131,104.528,38.557,161.278,39.378,16.279.236,32.563.072,48.854-.072,8.775-.186,17.625.991,26.228-1.774,21.621.146,42.586-7.025,64.31-5.738,5.45.322,11.085-.348,15.644,3.681v38.18c-30.6,3.506-63.723,6.065-99.093,7.065-27.24.769-53.155.539-77.591-.408-20.779-2.965-41.762-4.206-62.369-8.693C373.048,536.362,324.943,515.663,283.6,480.67c-7.836-6.633-15.016-14.043-22.5-21.094-3.387-.32-8.333-.852-14.265-1.716-21.934-3.2-85.74-13.334-144.447-62.3,0,0-67.613-55.115-93.233-155.506a310.278,310.278,0,0,1-8.075-45.706,517.561,517.561,0,0,1,2.4-59.939A522.979,522.979,0,0,1,34.738,1H70.53c2.354,5.43-.637,10.04-2.4,14.763-13.9,37.258-24.7,75.287-28.775,115.009-2.375,17.945-1.583,35.91-.42,53.855,5.013,58.97,27.457,110.913,65.381,155.809,27.772,32.876,60.345,59.965,102.852,72.347,3.619,1.053,8.28,4.359,11.025.673,2.712-3.643-2.146-7.02-3.74-10.429-4.714-10.083-10.09-19.84-15.408-29.629-4.853-16.465-13.257-32.129-11.333-50.122-1.244-26.892-2.315-54.105,7.144-79.67,20.332-54.95,52.695-98.668,113.639-113.159,6.459-1.537,13.112-2.256,19.673-3.354A118.6,118.6,0,0,1,359.284,127.229Z" transform="translate(1.387 1.388)" fill="none" stroke="#000" stroke-miterlimit="10" stroke-width="2"/>
      <path id="Path_1386" data-name="Path 1386" d="M197.53,291.687c10.419,8.641,19.9,18.58,32.8,23.8,10.584,9.868,23.266,16.031,36.747,20.786,38.466,13.568,78.245,16.048,118.554,14.069l24.361-1.626c32.448-.68,64.3-6.6,96.319-11,4.32-.592,8.679-.912,13.021-1.361v38.182c-14.482,7.941-30.83,6.7-46.367,8.765-23.543,3.132-46.995,8.137-71,6.707-20.3-.444-40.607-.045-60.892-.184C252.838,388.57,183.879,350.672,133.893,278.7a158.434,158.434,0,0,1-28.276-79.863c.079-9.176-.069-18.349.057-27.51,2.991-53.652,62.061-97.768,112.455-93.35,31.751,2.783,58.672,31.291,60.954,64.575,2.318,33.811-12.792,60.032-35.5,82.558-16.327,16.193-33.63,31.549-53.781,43.106-5.979,3.43-5.428,6.781-1.105,11.126,3.585,3.607,7.992,6.741,8.837,12.35" transform="translate(146.488 107.722)" fill="#faa4d6"/>
      <path id="Path_1387" data-name="Path 1387" d="M197.53,291.687c10.419,8.641,19.9,18.58,32.8,23.8,10.584,9.868,23.266,16.031,36.747,20.786,38.466,13.568,78.245,16.048,118.554,14.069l24.361-1.626c32.448-.68,64.3-6.6,96.319-11,4.32-.592,8.679-.912,13.021-1.361v38.182c-14.482,7.941-30.83,6.7-46.367,8.765-23.543,3.132-46.995,8.137-71,6.707-20.3-.444-40.607-.045-60.892-.184C252.838,388.57,183.879,350.672,133.893,278.7a158.434,158.434,0,0,1-28.276-79.863c.079-9.176-.069-18.349.057-27.51,2.991-53.652,62.061-97.768,112.455-93.35,31.751,2.783,58.672,31.291,60.954,64.575,2.318,33.811-12.792,60.032-35.5,82.558-16.327,16.193-33.63,31.549-53.781,43.106-5.979,3.43-5.428,6.781-1.105,11.126C192.278,282.944,196.685,286.078,197.53,291.687Z" transform="translate(146.488 107.722)" fill="none" stroke="#000" stroke-miterlimit="10" stroke-width="2"/>
      <path id="Path_1388" data-name="Path 1388" d="M213.018,302.974a5.364,5.364,0,0,1-1.053-.549c-6.4-5.366-15.644-11.016-16.21-18.12-.6-7.517,11.35-8.615,17.365-13.171,22.81-17.282,45.448-34.714,61.8-58.686,15-21.994,21.442-45.952,13.763-72.227-10.192-34.876-40.314-53.559-75.992-47.255-38.669,6.834-83.322,38.576-88.635,87.573a111.665,111.665,0,0,0,.06,31.157c6.092,45.3,26.061,83.685,59.078,114.9,36.738,34.735,79.369,59.182,129.62,68.351,13.186,2.406,26.841,2.225,40.282,3.23a508.1,508.1,0,0,0,65.128-.072c34.1-.554,67.532-7.249,101.286-10.987,5.087-.563,10.2-.869,15.305-1.294v31.021c-27.257-2.738-53.8,5.669-80.909,5.177-8.786,2.172-17.878-.733-26.655,1.616-46.961,1.762-93.727.943-139.561-11.178-85.96-22.734-148.066-73.409-183.262-155.974-5.2-12.2-7.476-24.724-8.977-37.614a120.453,120.453,0,0,1,.021-31.2C101.42,136.867,137.032,76.29,198.081,70.335a144.9,144.9,0,0,1,31.563.115c45.615,5.223,80.627,34.783,90.688,76.569a123.055,123.055,0,0,1,.122,31.463C313.784,222.79,287,253.368,251.94,278.032c-12.591,8.858-25.927,16.659-38.922,24.941" transform="translate(130.999 96.436)" fill="#f9c80b"/>
      <path id="Path_1389" data-name="Path 1389" d="M213.018,302.974a5.364,5.364,0,0,1-1.053-.549c-6.4-5.366-15.644-11.016-16.21-18.12-.6-7.517,11.35-8.615,17.365-13.171,22.81-17.282,45.448-34.714,61.8-58.686,15-21.994,21.442-45.952,13.763-72.227-10.192-34.876-40.314-53.559-75.992-47.255-38.669,6.834-83.322,38.576-88.635,87.573a111.665,111.665,0,0,0,.06,31.157c6.092,45.3,26.061,83.685,59.078,114.9,36.738,34.735,79.369,59.182,129.62,68.351,13.186,2.406,26.841,2.225,40.282,3.23a508.1,508.1,0,0,0,65.128-.072c34.1-.554,67.532-7.249,101.286-10.987,5.087-.563,10.2-.869,15.305-1.294v31.021c-27.257-2.738-53.8,5.669-80.909,5.177-8.786,2.172-17.878-.733-26.655,1.616-46.961,1.762-93.727.943-139.561-11.178-85.96-22.734-148.066-73.409-183.262-155.974-5.2-12.2-7.476-24.724-8.977-37.614a120.453,120.453,0,0,1,.021-31.2C101.42,136.867,137.032,76.29,198.081,70.335a144.9,144.9,0,0,1,31.563.115c45.615,5.223,80.627,34.783,90.688,76.569a123.055,123.055,0,0,1,.122,31.463C313.784,222.79,287,253.368,251.94,278.032,239.349,286.89,226.013,294.691,213.018,302.974Z" transform="translate(130.999 96.436)" fill="none" stroke="#000" stroke-miterlimit="10" stroke-width="2"/>
      <path id="Path_1390" data-name="Path 1390" d="M181.607,374.114c8.125,14.389,16.248,28.777,25.307,44.82-14.324.308-25.834-3.745-36.819-8.593-47.3-20.874-82.766-55.414-110.66-98.178C34.7,274.244,19.484,232.894,16.477,187.415a403.028,403.028,0,0,1,.062-57.8C19.969,84.7,33.431,42.414,50.229,1H90.79c2.418,5.946-1.086,10.749-3.144,15.775-20,48.9-33.406,99.136-31.876,152.568,1.623,56.683,22.137,105.774,59.14,148.233,17.27,19.814,36.22,37.764,59.808,50.119a18.041,18.041,0,0,1,6.889,6.419" transform="translate(21.457 1.387)" fill="#f9c80b"/>
      <path id="Path_1391" data-name="Path 1391" d="M181.607,374.114c8.125,14.389,16.248,28.777,25.307,44.82-14.324.308-25.834-3.745-36.819-8.593-47.3-20.874-82.766-55.414-110.66-98.178C34.7,274.244,19.484,232.894,16.477,187.415a403.028,403.028,0,0,1,.062-57.8C19.969,84.7,33.431,42.414,50.229,1H90.79c2.418,5.946-1.086,10.749-3.144,15.775-20,48.9-33.406,99.136-31.876,152.568,1.623,56.683,22.137,105.774,59.14,148.233,17.27,19.814,36.22,37.764,59.808,50.119A18.041,18.041,0,0,1,181.607,374.114Z" transform="translate(21.457 1.387)" fill="none" stroke="#000" stroke-miterlimit="10" stroke-width="2"/>
      <path id="Path_1392" data-name="Path 1392" d="M160.257,374.211c-37.332-16.356-64.033-44.849-86.926-77.283C28.606,233.564,22.842,163.585,39.286,90.007,46.153,59.272,57.069,29.946,69.44,1.1H110c-21.38,42.278-37.306,86.32-43.24,133.6a163.237,163.237,0,0,0,.186,40.619c2.683,34.372,13.9,66.188,29.131,96.773,0,0,17.267,32.969,44.918,49.969a10.173,10.173,0,0,0,2.461,1.053q1.3.136,2.6.267,7.1,25.421,14.2,50.838" transform="translate(42.807 1.522)" fill="#faa4d6"/>
      <path id="Path_1393" data-name="Path 1393" d="M160.257,374.211c-37.332-16.356-64.033-44.849-86.926-77.283C28.606,233.564,22.842,163.585,39.286,90.007,46.153,59.272,57.069,29.946,69.44,1.1H110c-21.38,42.278-37.306,86.32-43.24,133.6a163.237,163.237,0,0,0,.186,40.619c2.683,34.372,13.9,66.188,29.131,96.773,0,0,17.267,32.969,44.918,49.969a10.173,10.173,0,0,0,2.461,1.053q1.3.136,2.6.267Q153.16,348.795,160.257,374.211Z" transform="translate(42.807 1.522)" fill="none" stroke="#000" stroke-miterlimit="10" stroke-width="2"/>
      <path id="Path_1394" data-name="Path 1394" d="M94.891,119.027l-.021,31.2q.308-5.89.394-12.164c.079-6.645-.064-13-.372-19.031" transform="translate(131.582 165.087)" fill="#0c56b9"/>
      <path id="Path_1395" data-name="Path 1395" d="M123.906,145.3c6.008-30.109,40.894-54.509,71.368-49.914,9.77,1.473,18.277,11.472,19.487,22.831,1.623,15.243-1.287,29.226-11.252,41.316a234.021,234.021,0,0,1-59.192,51.177c-3.38,2.065-6.3,3.165-8.617,2.22-1.611-.661-2.521-2.153-4.234-6.545a115.33,115.33,0,0,1-4.8-15.659c-1.182-4.986-2.12-9.025-2.716-11.6-1.864-7.285-2.891-19.554-.043-33.828" transform="translate(169.402 131.52)" fill="#fdfdfd"/>
      <path id="Path_1396" data-name="Path 1396" d="M123.906,145.3c6.008-30.109,40.894-54.509,71.368-49.914,9.77,1.473,18.277,11.472,19.487,22.831,1.623,15.243-1.287,29.226-11.252,41.316a234.021,234.021,0,0,1-59.192,51.177c-3.38,2.065-6.3,3.165-8.617,2.22-1.611-.661-2.521-2.153-4.234-6.545a115.33,115.33,0,0,1-4.8-15.659c-1.182-4.986-2.12-9.025-2.716-11.6C122.085,171.84,121.058,159.571,123.906,145.3Z" transform="translate(169.402 131.52)" fill="none" stroke="#000" stroke-miterlimit="10" stroke-width="2"/>
    </g>
  </g>
</svg>
