<svg xmlns="http://www.w3.org/2000/svg" xmlns:xlink="http://www.w3.org/1999/xlink" width="149.891" height="533.187" viewBox="0 0 149.891 533.187">
  <defs>
    <clipPath id="clip-path">
      <rect id="Rectangle_5208" data-name="Rectangle 5208" width="530.813" height="140.649" fill="#f56608"/>
    </clipPath>
  </defs>
  <g id="_3" data-name="3" transform="matrix(0.017, 1, -1, 0.017, 140.628, 0)">
    <g id="Group_820" data-name="Group 820" transform="translate(0 0.001)" clip-path="url(#clip-path)">
      <path id="Path_1433" data-name="Path 1433" d="M1.711,134.527c21.55-38.255,53.243-66.483,90.259-88.72C150.075,10.9,212.465-2.546,280.943,1.786c81.788,5.168,144.168,45.692,202.266,97.247,12.363,10.967,23.227,23.619,34.782,35.494h-71.21c-12.143-8.381-23.651-17.631-35.017-26.978-41.208-33.881-88.727-53.265-140.777-62.593a100.3,100.3,0,0,0-39.947-.057C168.02,54.794,111.813,78.822,66.167,124.611c-4.3,4.317-9.792,6.54-14.607,9.916Z" transform="translate(4.383 2.562)" fill="#f56608"/>
      <path id="Path_1434" data-name="Path 1434" d="M1.711,134.527c21.55-38.255,53.243-66.483,90.259-88.72C150.075,10.9,212.465-2.546,280.943,1.786c81.788,5.168,144.168,45.692,202.266,97.247,12.363,10.967,23.227,23.619,34.782,35.494h-71.21c-12.143-8.381-23.651-17.631-35.017-26.978-41.208-33.881-88.727-53.265-140.777-62.593a100.3,100.3,0,0,0-39.947-.057C168.02,54.794,111.813,78.822,66.167,124.611c-4.3,4.317-9.792,6.54-14.607,9.916Z" transform="translate(4.383 2.562)" fill="none" stroke="#000" stroke-miterlimit="10" stroke-width="2"/>
      <path id="Path_1435" data-name="Path 1435" d="M236.665,13.427c60.574,7.43,111.213,35.993,156.92,74.561,6.344,5.357,15.961,8.285,17.339,18.515h-53.4c-24.47-11.117-46.764-26.639-72.9-34.483-17.464-5.243-34.878-10.169-53.015-12.289a135.882,135.882,0,0,0-46.757-.135C142.125,62.475,106.78,83,72.675,106.5H15.706C31.9,83.056,54.987,67.622,78.734,53.228,114.079,31.8,152.1,17.616,193.459,13.217c14.411-1.546,28.816-1.934,43.206.21" transform="translate(40.237 30.582)" fill="#eb2185"/>
      <path id="Path_1436" data-name="Path 1436" d="M236.665,13.427c60.574,7.43,111.213,35.993,156.92,74.561,6.344,5.357,15.961,8.285,17.339,18.515h-53.4c-24.47-11.117-46.764-26.639-72.9-34.483-17.464-5.243-34.878-10.169-53.015-12.289a135.882,135.882,0,0,0-46.757-.135C142.125,62.475,106.78,83,72.675,106.5H15.706C31.9,83.056,54.987,67.622,78.734,53.228,114.079,31.8,152.1,17.616,193.459,13.217,207.871,11.671,222.275,11.283,236.665,13.427Z" transform="translate(40.237 30.582)" fill="none" stroke="#000" stroke-miterlimit="10" stroke-width="2"/>
      <path id="Path_1437" data-name="Path 1437" d="M31.7,75.784c29.578-32.232,67.48-46.347,109.942-50.54,16.855-1.464,33.7-2.144,50.529.331,46.3,4.734,88.492,19.658,124.375,50.209Z" transform="translate(81.212 61.304)" fill="#fffbfa"/>
      <path id="Path_1438" data-name="Path 1438" d="M31.7,75.784c29.578-32.232,67.48-46.347,109.942-50.54,16.855-1.464,33.7-2.144,50.529.331,46.3,4.734,88.492,19.658,124.375,50.209Z" transform="translate(81.212 61.304)" fill="none" stroke="#000" stroke-miterlimit="10" stroke-width="2"/>
    </g>
  </g>
</svg>
