<svg xmlns="http://www.w3.org/2000/svg" xmlns:xlink="http://www.w3.org/1999/xlink" width="560.78" height="574.262" viewBox="0 0 560.78 574.262">
  <defs>
    <clipPath id="clip-path">
      <rect id="Rectangle_5205" data-name="Rectangle 5205" width="433.044" height="390.664" fill="none"/>
    </clipPath>
  </defs>
  <g id="_2" data-name="2" transform="matrix(-0.53, 0.848, -0.848, -0.53, 560.78, 207.02)">
    <g id="Group_814" data-name="Group 814" clip-path="url(#clip-path)">
      <path id="Path_1415" data-name="Path 1415" d="M336.334,184.8c-5.528-24.129-21.761-41.083-36.578-50.547-42.138-26.919-87.6-46.768-134.931-62.568-25.092-8.376-49.749-17.818-70-35.658C83.87,26.371,74.157,15.656,70.183,1h38.235c25.032,24.99,58.408,33.234,90.1,44.824,45.637,16.689,89.722,36.658,129.392,64.988,24.546,17.53,41.331,40.657,43.329,72.2.1,8.639.046,17.268.069,25.894-4.766,44.049-26.691,76.687-66.187,96.617a172.373,172.373,0,0,1-71.629,18.463c-5.841.129-11.735-.716-17.477,1.044-23.373,2.537-46.44-.339-69.518-3.694-28.127-4.087-54.459-13.776-80.069-25.531a534.307,534.307,0,0,1-56.118-29.713c-3.639-2.227-7.258-4.4-9.309-8.36V219.494c15.918,9.183,31.649,18.712,47.8,27.469,28.753,15.59,58.171,29.682,90.507,36.457,13.782,2.887,27.567,5.7,41.752,5.52a317.328,317.328,0,0,0,45.906.025c20.894-1.459,41.282-5.333,60.289-14.385a97.429,97.429,0,0,0,35.2-29.412,81.071,81.071,0,0,0,13.456-27.608,77.407,77.407,0,0,0,1.821-9.107,72.984,72.984,0,0,0-1.4-23.659" transform="translate(0.821 0.821)" fill="#fcc801"/>
      <path id="Path_1416" data-name="Path 1416" d="M336.334,184.8c-5.528-24.129-21.761-41.083-36.578-50.547-42.138-26.919-87.6-46.768-134.931-62.568-25.092-8.376-49.749-17.818-70-35.658C83.87,26.371,74.157,15.656,70.183,1h38.235c25.032,24.99,58.408,33.234,90.1,44.824,45.637,16.689,89.722,36.658,129.392,64.988,24.546,17.53,41.331,40.657,43.329,72.2.1,8.639.046,17.268.069,25.894-4.766,44.049-26.691,76.687-66.187,96.617a172.373,172.373,0,0,1-71.629,18.463c-5.841.129-11.735-.716-17.477,1.044-23.373,2.537-46.44-.339-69.518-3.694-28.127-4.087-54.459-13.776-80.069-25.531a534.307,534.307,0,0,1-56.118-29.713c-3.639-2.227-7.258-4.4-9.309-8.36V219.494c15.918,9.183,31.649,18.712,47.8,27.469,28.753,15.59,58.171,29.682,90.507,36.457,13.782,2.887,27.567,5.7,41.752,5.52a317.328,317.328,0,0,0,45.906.025c20.894-1.459,41.282-5.333,60.289-14.385a97.429,97.429,0,0,0,35.2-29.412,81.071,81.071,0,0,0,13.456-27.608,77.407,77.407,0,0,0,1.821-9.107A72.984,72.984,0,0,0,336.334,184.8Z" transform="translate(0.821 0.821)" fill="none" stroke="#000" stroke-miterlimit="10" stroke-width="2"/>
      <path id="Path_1417" data-name="Path 1417" d="M193.788,387.349C137.719,384.275,87.3,364.042,39.45,336.236,26.409,328.659,13.8,320.335,1,312.354V286.863c4.553-1.586,7.289,1.865,10.5,3.865,38.364,23.881,77.723,45.526,122.655,54.64,16.57,3.362,33.192,6.411,50.132,7.316a254.392,254.392,0,0,0,44.54.076c30.168-3.315,59.79-8.595,87.411-22.2,46.292-22.81,72.9-60.222,82.806-110.268.353-1.779.506-3.6.932-5.369a117.927,117.927,0,0,0,.111-30.513,121.957,121.957,0,0,0-27.9-63.972c-9.271-11.134-21.113-18.947-32.951-26.806C290.948,61.57,237.815,39.858,183.416,20.865c-9.44-3.295-18.785-6.85-27.456-11.875C152.765,7.14,148.49,5.967,148.47,1h56.439c10.048,5.744,21.317,8.345,32.022,12.39,41.681,15.749,83.682,30.848,122.305,53.468,39.3,23.016,62.963,57.759,69.117,102.533,13.35,97.14-39.6,174.5-130.749,205.1-20.581,6.908-41.532,12.166-63.4,12.811a293.8,293.8,0,0,1-40.421.049" transform="translate(0.821 0.821)" fill="#85c442"/>
      <path id="Path_1418" data-name="Path 1418" d="M193.788,387.349C137.719,384.275,87.3,364.042,39.45,336.236,26.409,328.659,13.8,320.335,1,312.354V286.863c4.553-1.586,7.289,1.865,10.5,3.865,38.364,23.881,77.723,45.526,122.655,54.64,16.57,3.362,33.192,6.411,50.132,7.316a254.392,254.392,0,0,0,44.54.076c30.168-3.315,59.79-8.595,87.411-22.2,46.292-22.81,72.9-60.222,82.806-110.268.353-1.779.506-3.6.932-5.369a117.927,117.927,0,0,0,.111-30.513,121.957,121.957,0,0,0-27.9-63.972c-9.271-11.134-21.113-18.947-32.951-26.806C290.948,61.57,237.815,39.858,183.416,20.865c-9.44-3.295-18.785-6.85-27.456-11.875C152.765,7.14,148.49,5.967,148.47,1h56.439c10.048,5.744,21.317,8.345,32.022,12.39,41.681,15.749,83.682,30.848,122.305,53.468,39.3,23.016,62.963,57.759,69.117,102.533,13.35,97.14-39.6,174.5-130.749,205.1-20.581,6.908-41.532,12.166-63.4,12.811A293.8,293.8,0,0,1,193.788,387.349Z" transform="translate(0.821 0.821)" fill="none" stroke="#000" stroke-miterlimit="10" stroke-width="2"/>
      <path id="Path_1419" data-name="Path 1419" d="M182.953,354.534C123.218,352.068,70.07,330.3,20.2,298.953q-9.6-6.038-19.2-12.09V257.731c34.173,20.916,69.509,39.377,107.673,52.1,18.115,6.039,36.884,8.314,55.576,11.421,17.175,2.854,34.325,1.461,51.49,1.812l18.441-1.411c32.013-2.767,62.548-10.349,88.791-29.839,27.159-20.169,41.7-47.91,46.116-81.2a135.368,135.368,0,0,0-.071-29.536c-4.029-36.5-26.768-59.672-56.051-77.865-42.684-26.52-88.359-46.62-135.98-62.475-19-6.324-37.871-13.032-54.3-24.954-5.606-4.067-11.3-8.127-14.265-14.78h40.054c11.006,9.651,24.732,13.835,38.109,18.492,53.676,18.687,105.649,40.774,153.612,71.847,26.331,17.058,46.926,38.1,56.871,68.387a93.46,93.46,0,0,1,4.817,23.06,189.467,189.467,0,0,1-.106,33.281c-9.132,57.987-40.484,98.812-94.749,121.373a230.013,230.013,0,0,1-76.546,16.993,362.069,362.069,0,0,1-47.527.1" transform="translate(0.821 0.821)" fill="#0c56b9"/>
      <path id="Path_1420" data-name="Path 1420" d="M182.953,354.534C123.218,352.068,70.07,330.3,20.2,298.953q-9.6-6.038-19.2-12.09V257.731c34.173,20.916,69.509,39.377,107.673,52.1,18.115,6.039,36.884,8.314,55.576,11.421,17.175,2.854,34.325,1.461,51.49,1.812l18.441-1.411c32.013-2.767,62.548-10.349,88.791-29.839,27.159-20.169,41.7-47.91,46.116-81.2a135.368,135.368,0,0,0-.071-29.536c-4.029-36.5-26.768-59.672-56.051-77.865-42.684-26.52-88.359-46.62-135.98-62.475-19-6.324-37.871-13.032-54.3-24.954-5.606-4.067-11.3-8.127-14.265-14.78h40.054c11.006,9.651,24.732,13.835,38.109,18.492,53.676,18.687,105.649,40.774,153.612,71.847,26.331,17.058,46.926,38.1,56.871,68.387a93.46,93.46,0,0,1,4.817,23.06,189.467,189.467,0,0,1-.106,33.281c-9.132,57.987-40.484,98.812-94.749,121.373a230.013,230.013,0,0,1-76.546,16.993A362.069,362.069,0,0,1,182.953,354.534Z" transform="translate(0.821 0.821)" fill="none" stroke="#000" stroke-miterlimit="10" stroke-width="2"/>
    </g>
  </g>
</svg>
