<svg xmlns="http://www.w3.org/2000/svg" xmlns:xlink="http://www.w3.org/1999/xlink" width="328.4" height="581.372" viewBox="0 0 328.4 581.372">
  <defs>
    <clipPath id="clip-path">
      <rect id="Rectangle_5207" data-name="Rectangle 5207" width="271.77" height="556.01" fill="none"/>
    </clipPath>
  </defs>
  <g id="_5" data-name="5" transform="matrix(-0.995, 0.105, -0.105, -0.995, 328.4, 552.964)">
    <g id="Group_818" data-name="Group 818" clip-path="url(#clip-path)">
      <path id="Path_1427" data-name="Path 1427" d="M2.061,205.159C10.91,118.61,66.42,37.486,162.9,11.068c17.122-4.688,34.431-8.635,52.341-8.833,17.452-1.388,34.9-2,52.333.3V33.726c-4.558,4.189-10.25,3.482-15.733,3.63-17.847.486-35.723-.941-53.519.845C105.851,53.43,47.119,113.4,35.3,207.086c-4.347,34.468,6.209,66.79,22.387,97.178C89.71,364.413,137.844,409.973,190.546,451.5c22.093,17.411,44.437,34.494,66.639,51.756,4.16,3.235,7.923,6.654,10.385,11.355V551c-9.813-2.681-17.1-9.66-25.227-15.109-58.186-39-114.448-80.389-161.295-133.112-36.631-41.223-67.227-85.807-77-141.661-.819-4.678-1.378-9.4-2.059-14.1a214.246,214.246,0,0,1,.073-41.86" transform="translate(1.6 1.6)" fill="#f56608"/>
      <path id="Path_1428" data-name="Path 1428" d="M2.061,205.159C10.91,118.61,66.42,37.486,162.9,11.068c17.122-4.688,34.431-8.635,52.341-8.833,17.452-1.388,34.9-2,52.333.3V33.726c-4.558,4.189-10.25,3.482-15.733,3.63-17.847.486-35.723-.941-53.519.845C105.851,53.43,47.119,113.4,35.3,207.086c-4.347,34.468,6.209,66.79,22.387,97.178C89.71,364.413,137.844,409.973,190.546,451.5c22.093,17.411,44.437,34.494,66.639,51.756,4.16,3.235,7.923,6.654,10.385,11.355V551c-9.813-2.681-17.1-9.66-25.227-15.109-58.186-39-114.448-80.389-161.295-133.112-36.631-41.223-67.227-85.807-77-141.661-.819-4.678-1.378-9.4-2.059-14.1A214.246,214.246,0,0,1,2.061,205.159Z" transform="translate(1.6 1.6)" fill="none" stroke="#000" stroke-miterlimit="10" stroke-width="2"/>
      <path id="Path_1429" data-name="Path 1429" d="M65.2,195.82c3.1,38.69,23.729,68.808,47.185,97.768,33.2,41,71.811,76.177,113.821,107.807,1.6,1.2,3.82,1.576,5.749,2.335v46.79c-6.066,3.705-9.73-1.362-13.682-4.116C153.5,401.242,97.074,347.723,52.516,282.048c-38.851-57.26-39.387-142.717.65-192.952,31.873-39.99,75.878-57.557,125.288-62.734,12.814-1.342,25.684-3.9,38.74-2.982,5.125.359,10.5-.549,14.761,3.437V63.21c-10.219,3.424-20.986-.728-31.238,2.26-33.914,2.639-66.689,8.731-94.97,29.642-25.2,18.638-38.045,43.773-40.5,74.653A73.055,73.055,0,0,0,65.2,195.82" transform="translate(37.215 37.101)" fill="#85c442"/>
      <path id="Path_1430" data-name="Path 1430" d="M65.2,195.82c3.1,38.69,23.729,68.808,47.185,97.768,33.2,41,71.811,76.177,113.821,107.807,1.6,1.2,3.82,1.576,5.749,2.335v46.79c-6.066,3.705-9.73-1.362-13.682-4.116C153.5,401.242,97.074,347.723,52.516,282.048c-38.851-57.26-39.387-142.717.65-192.952,31.873-39.99,75.878-57.557,125.288-62.734,12.814-1.342,25.684-3.9,38.74-2.982,5.125.359,10.5-.549,14.761,3.437V63.21c-10.219,3.424-20.986-.728-31.238,2.26-33.914,2.639-66.689,8.731-94.97,29.642-25.2,18.638-38.045,43.773-40.5,74.653A73.055,73.055,0,0,0,65.2,195.82Z" transform="translate(37.215 37.101)" fill="none" stroke="#000" stroke-miterlimit="10" stroke-width="2"/>
      <path id="Path_1431" data-name="Path 1431" d="M248.807,41.512c-32.72,1.162-65.443,1.534-97.181,11.7C45.8,87.087,28.013,181.161,54.344,258.609c12.254,36.038,36.974,64.3,61.288,92.373,37.575,43.386,81.19,80.137,128.489,112.542,1.326.907,3.112,1.141,4.685,1.69v28.594c-64.242-48.394-130.335-94.747-180.5-159.048-25.528-32.723-46.42-67.986-53.29-109.786C5.087,164.527,28.369,114.771,66.3,70.228c28.617-33.61,65.365-51.774,109.443-54.975,24.361-1.474,48.719-1.948,73.067.265Z" transform="translate(20.363 22.405)" fill="#f9c80b"/>
      <path id="Path_1432" data-name="Path 1432" d="M248.807,41.512c-32.72,1.162-65.443,1.534-97.181,11.7C45.8,87.087,28.013,181.161,54.344,258.609c12.254,36.038,36.974,64.3,61.288,92.373,37.575,43.386,81.19,80.137,128.489,112.542,1.326.907,3.112,1.141,4.685,1.69v28.594c-64.242-48.394-130.335-94.747-180.5-159.048-25.528-32.723-46.42-67.986-53.29-109.786C5.087,164.527,28.369,114.771,66.3,70.228c28.617-33.61,65.365-51.774,109.443-54.975,24.361-1.474,48.719-1.948,73.067.265Z" transform="translate(20.363 22.405)" fill="none" stroke="#000" stroke-miterlimit="10" stroke-width="2"/>
    </g>
  </g>
</svg>
