<svg id="_4" data-name="4" xmlns="http://www.w3.org/2000/svg" xmlns:xlink="http://www.w3.org/1999/xlink" width="489.179" height="269.637" viewBox="0 0 489.179 269.637">
  <defs>
    <clipPath id="clip-path">
      <rect id="Rectangle_5204" data-name="Rectangle 5204" width="489.179" height="269.637" fill="none"/>
    </clipPath>
  </defs>
  <g id="Group_812" data-name="Group 812" clip-path="url(#clip-path)">
    <path id="Path_1409" data-name="Path 1409" d="M461.664,250.823c-15.422-14.742-27.088-32.079-36.518-50.832-9.529-18.952-18.012-38.407-27.5-57.378-21.5-42.978-57.259-65.818-105.6-70.489a312.148,312.148,0,0,0-31.276.02,75.47,75.47,0,0,0-12.792,1.221,254.268,254.268,0,0,0-29.78,6.728c-21.423,6.092-41.759,14.984-62.227,23.5-22.707,9.448-45.929,13.306-70.2,6.828a76.507,76.507,0,0,1-36.62-21.685C44.439,83.911,33.064,71.443,20,44.856A282.1,282.1,0,0,1,4,4.768L1,28.38v.9C5.334,47.569,11.141,65.37,20.488,81.843c17.955,31.641,45.882,47.907,82.5,50.458,4.806.021,9.618-.034,14.431.02,16.607-.4,32.1-5.195,47.207-11.456,32.5-13.474,64.758-27.72,100.727-30.081a118.16,118.16,0,0,1,22.562-.149c3.8.5,7.617.843,11.387,1.487,29.27,5,53.692,17.681,70.781,42.3,10.275,14.8,17.362,31.121,24.621,47.391,10.347,23.191,21.856,45.781,37.925,65.785,6.242,7.771,12.537,15.644,21.2,21.171h31.988c-8.488-5.417-16.841-10.953-24.153-17.942" transform="translate(0 -0.106)" fill="#f56608"/>
    <path id="Path_1410" data-name="Path 1410" d="M461.664,250.823c-15.422-14.742-27.088-32.079-36.518-50.832-9.529-18.952-18.012-38.407-27.5-57.378-21.5-42.978-57.259-65.818-105.6-70.489a312.148,312.148,0,0,0-31.276.02,75.47,75.47,0,0,0-12.792,1.221,254.268,254.268,0,0,0-29.78,6.728c-21.423,6.092-41.759,14.984-62.227,23.5-22.707,9.448-45.929,13.306-70.2,6.828a76.507,76.507,0,0,1-36.62-21.685C44.439,83.911,33.064,71.443,20,44.856A282.1,282.1,0,0,1,4,4.768L1,28.38v.9C5.334,47.569,11.141,65.37,20.488,81.843c17.955,31.641,45.882,47.907,82.5,50.458,4.806.021,9.618-.034,14.431.02,16.607-.4,32.1-5.195,47.207-11.456,32.5-13.474,64.758-27.72,100.727-30.081a118.16,118.16,0,0,1,22.562-.149c3.8.5,7.617.843,11.387,1.487,29.27,5,53.692,17.681,70.781,42.3,10.275,14.8,17.362,31.121,24.621,47.391,10.347,23.191,21.856,45.781,37.925,65.785,6.242,7.771,12.537,15.644,21.2,21.171h31.988C477.329,263.348,468.976,257.812,461.664,250.823Z" transform="translate(0 -0.106)" fill="none" stroke="#000" stroke-miterlimit="10" stroke-width="2"/>
    <path id="Path_1411" data-name="Path 1411" d="M1,29.839C4.384,36.05,5.748,42.951,7.963,49.554,12.7,63.66,17.854,77.593,26.507,89.921c18.161,25.874,43.711,39.183,75.423,41.748a79.663,79.663,0,0,0,16.063.007c18.884-.952,36.217-7.263,53.358-14.461,25.009-10.5,50.029-21.075,77.213-25.2,5.371-.815,10.816-1.159,16.227-1.719a179.427,179.427,0,0,1,24.2.018c40.59,3.248,71.17,21.576,90.455,57.144,7.81,14.4,14.078,29.486,20.985,44.288,13.293,28.486,29.054,55.329,53.1,76.7.205.182.205.585.3.884h-24.99c-4.308-1.958-6.51-5.953-9.226-9.373-16.665-20.986-28.446-44.628-38.985-68.94-4.932-11.376-9.887-22.751-16.036-33.567-13.753-24.192-34.853-39.15-61.72-46.9a152.088,152.088,0,0,0-24.942-4.686,131.935,131.935,0,0,0-23.469.114c-30.88,3.207-59.576,13.259-87.351,26.378-15.6,7.371-31.49,14.136-48.871,16.6a34.118,34.118,0,0,1-5.961.534c-5.708-.034-11.414.016-17.113-.014a110.462,110.462,0,0,1-64.516-26.836c-11.723-10.024-20.3-22.307-26.637-36.173C2.713,83.623,2.264,80.557,1,77.736Z" transform="translate(0 -0.663)" fill="#0c56b9"/>
    <path id="Path_1412" data-name="Path 1412" d="M1,29.839C4.384,36.05,5.748,42.951,7.963,49.554,12.7,63.66,17.854,77.593,26.507,89.921c18.161,25.874,43.711,39.183,75.423,41.748a79.663,79.663,0,0,0,16.063.007c18.884-.952,36.217-7.263,53.358-14.461,25.009-10.5,50.029-21.075,77.213-25.2,5.371-.815,10.816-1.159,16.227-1.719a179.427,179.427,0,0,1,24.2.018c40.59,3.248,71.17,21.576,90.455,57.144,7.81,14.4,14.078,29.486,20.985,44.288,13.293,28.486,29.054,55.329,53.1,76.7.205.182.205.585.3.884h-24.99c-4.308-1.958-6.51-5.953-9.226-9.373-16.665-20.986-28.446-44.628-38.985-68.94-4.932-11.376-9.887-22.751-16.036-33.567-13.753-24.192-34.853-39.15-61.72-46.9a152.088,152.088,0,0,0-24.942-4.686,131.935,131.935,0,0,0-23.469.114c-30.88,3.207-59.576,13.259-87.351,26.378-15.6,7.371-31.49,14.136-48.871,16.6a34.118,34.118,0,0,1-5.961.534c-5.708-.034-11.414.016-17.113-.014a110.462,110.462,0,0,1-64.516-26.836c-11.723-10.024-20.3-22.307-26.637-36.173C2.713,83.623,2.264,80.557,1,77.736Z" transform="translate(0 -0.663)" fill="none" stroke="#000" stroke-miterlimit="10" stroke-width="2"/>
    <path id="Path_1413" data-name="Path 1413" d="M278.99,106.069c42.169,4.34,74.1,23.244,92.04,61.969,6.786,14.651,13.246,29.447,20.145,44.047a251.389,251.389,0,0,0,37.663,58.326H406.847a301.607,301.607,0,0,1-35.714-64.127c-4.368-10.728-8.6-21.506-14-31.814C344.3,149.938,323.612,134.953,297,127.387a145.4,145.4,0,0,0-26.039-4.732,110.977,110.977,0,0,0-19.136-.023c-24.875,2.058-47.844,10.586-70.211,20.592a302.224,302.224,0,0,1-67.407,21.393,93.357,93.357,0,0,1-33.988-.021c-29.668-5.348-54.572-18.62-73.237-42.205-2.129-2.691-4-5.579-5.984-8.376V78.825c1.785,1.4,2.087,3.577,2.923,5.46,17.154,38.676,47.638,59.706,89.984,65.055a95.9,95.9,0,0,0,19.1-.037c17.529-1.459,33.5-7.85,49.164-15.066,21.82-10.056,43.842-19.517,67.565-24.533a171.52,171.52,0,0,1,24.057-3.663,192.1,192.1,0,0,1,25.2.029" transform="translate(0 -1.753)" fill="#eb2185"/>
    <path id="Path_1414" data-name="Path 1414" d="M278.99,106.069c42.169,4.34,74.1,23.244,92.04,61.969,6.786,14.651,13.246,29.447,20.145,44.047a251.389,251.389,0,0,0,37.663,58.326H406.847a301.607,301.607,0,0,1-35.714-64.127c-4.368-10.728-8.6-21.506-14-31.814C344.3,149.938,323.612,134.953,297,127.387a145.4,145.4,0,0,0-26.039-4.732,110.977,110.977,0,0,0-19.136-.023c-24.875,2.058-47.844,10.586-70.211,20.592a302.224,302.224,0,0,1-67.407,21.393,93.357,93.357,0,0,1-33.988-.021c-29.668-5.348-54.572-18.62-73.237-42.205-2.129-2.691-4-5.579-5.984-8.376V78.825c1.785,1.4,2.087,3.577,2.923,5.46,17.154,38.676,47.638,59.706,89.984,65.055a95.9,95.9,0,0,0,19.1-.037c17.529-1.459,33.5-7.85,49.164-15.066,21.82-10.056,43.842-19.517,67.565-24.533a171.52,171.52,0,0,1,24.057-3.663A192.1,192.1,0,0,1,278.99,106.069Z" transform="translate(0 -1.753)" fill="none" stroke="#000" stroke-miterlimit="10" stroke-width="2"/>
  </g>
</svg>
