<svg xmlns="http://www.w3.org/2000/svg" xmlns:xlink="http://www.w3.org/1999/xlink" width="74.658" height="70.867" viewBox="0 0 74.658 70.867">
  <defs>
    <clipPath id="clip-path">
      <rect id="Rectangle_5147" data-name="Rectangle 5147" width="61.589" height="42.324" transform="translate(0 0)" fill="#0c56b9"/>
    </clipPath>
  </defs>
  <g id="Group_749" data-name="Group 749" transform="matrix(-0.799, -0.602, 0.602, -0.799, 49.187, 70.867)">
    <g id="Group_748" data-name="Group 748" clip-path="url(#clip-path)">
      <path id="Path_1124" data-name="Path 1124" d="M37.087,10.294c-.217,10.5-4.39,19.985-7.705,29.686C28.876,41.463,27.8,42.643,26,42.246a3.419,3.419,0,0,1-2.722-3.169c-.389-3.015.307-5.944.712-8.9,1.1-8.072,2.636-16.036,5.848-23.582a20.2,20.2,0,0,1,1.5-3.123c.846-1.3,2.011-2.324,3.73-1.789,1.471.459,1.944,1.757,2.005,3.143.081,1.82.02,3.646.02,5.468" fill="#0c56b9"/>
      <path id="Path_1125" data-name="Path 1125" d="M61.587,23.223c.04,1.143-.927,2.354-2.662,3a3.867,3.867,0,0,1-4.883-1.307,31.665,31.665,0,0,1-5.958-15.1,3.249,3.249,0,0,1,1.891-3.7c1.605-.68,3.383-.79,4.6.684a28.572,28.572,0,0,1,7.016,16.428" fill="#0c56b9"/>
      <path id="Path_1126" data-name="Path 1126" d="M19.018,3.038c.118,3.023-12.6,16.824-15.387,17-2.846.177-4.67-2.819-2.984-5.666A38.463,38.463,0,0,1,14.582.562C17.273-1,18.426.968,19.018,3.038" fill="#0c56b9"/>
    </g>
  </g>
</svg>
