<svg xmlns="http://www.w3.org/2000/svg" xmlns:xlink="http://www.w3.org/1999/xlink" width="245.042" height="418.221" viewBox="0 0 245.042 418.221">
  <defs>
    <clipPath id="clip-path">
      <rect id="Rectangle_5146" data-name="Rectangle 5146" width="237.851" height="414.133" fill="none"/>
    </clipPath>
  </defs>
  <g id="With_all_teh_sauce_" data-name="With all teh sauce " transform="translate(-1260.075 -5988.748)">
    <g id="Group_747" data-name="Group 747" transform="matrix(1, -0.017, 0.017, 1, 1260.075, 5992.898)">
      <g id="Group_746" data-name="Group 746" clip-path="url(#clip-path)">
        <path id="Path_1061" data-name="Path 1061" d="M235.2,127.382a10.156,10.156,0,0,1-5.017,11.3c-2.789,1.71-5.365,3.085-8.748.825-3.164-2.113-5.575-4.1-5.688-8.408-.363-13.964-1.387-14.522-14.044-9.151-2.882,1.223-5.795,2.869-8.813,3.187-14.974,1.582-22.847-3.477-25.787-20.249-.917-5.229-2.55-4.826-6.069-3.018-9.325,4.8-17.39,12.029-27.748,14.779-7.733,2.054-14.878,6.525-23.743,3.573-9.027-3-16.925-10.952-16.3-21.312.164-2.735,1.8-7.044-1.829-7.981-3.316-.855-6.613.909-9.8,3.753C73.3,102.093,67.246,111.757,57,117.346c-12.954,7.067-30.637,7.383-41.005-2.354-9.961-9.354-10.6-19.9-.292-32.58,3.3-4.064,7.047-5.712,12.193-4.906,3.1.486,5.875,2.289,5.853,4.818-.027,3.08,3,6.152-.088,9.434-2.363,2.511-7.556,3.848-5.385,8.855,1.285,2.969,10.852,3.56,15.5,1.753,8.556-3.324,13.462-10.7,19.316-17,7.945-8.547,16.726-14.294,29.22-14.555,11.251-.234,23.538,9.2,20.387,24.687-1.222,6,.065,7.771,5.542,6.406a64.964,64.964,0,0,0,20.471-9.329c8.22-5.486,16.353-11.786,27.372-11.236,12.087.6,17.015,5.112,19.047,17,1.381,8.074,1.146,10.079,10.341,5.3,7.713-4.006,15.724-4.384,23.728-2.637,7.858,1.717,15.224,11.918,15.99,22.42.078,1.067.01,2.146.01,3.953M25.208,80.831a14.2,14.2,0,0,0-10.2,13.677c-.18,5.805,4.079,10,9.267,12.671,14.19,7.313,29.554-.716,38.064-10.057,5.121-5.623,9.142-12.259,15.675-16.574,6.274-4.143,12.776-3.884,19.241-.907,5.184,2.387,1.8,7.2,2.484,10.864a22.548,22.548,0,0,1-.041,3.857c.049,6.476,3.5,10.722,9.815,13.082,7.628,2.851,14.345-.446,20.689-3.378,9.292-4.3,17.77-10.361,27.077-14.615,9.559-4.368,16.34-1.669,16.088,9.549-.183,8.207,5.933,13.415,14.233,13.49,6.694.059,11.483-4.962,17.753-6.157,7.392-1.408,12.62,1.092,15.917,7.924,1.529,3.165.695,6.276,1.076,9.394.137,1.126-.606,2.757,1.4,2.9,1.513.107,2.346-.7,2.461-2.272.67-9.167-4.325-21.9-16.514-21.169-5.7.342-10.691,2.128-15.707,4.462-10.236,4.76-17.158.45-17.867-11-.46-7.443-6.415-13.9-12.213-12.415-4.573,1.172-9.207,2.383-13.462,4.946-8.978,5.406-17.594,11.359-27.952,14.438-14.141,4.2-20.861-.863-18.75-15.2.864-5.872-.51-10.639-7.084-12.284-8.557-2.139-16.9-2.58-23.673,4.4-5.65,5.814-10.624,12.344-16.627,17.745-8.751,7.872-20.988,11.808-31.739,5.462-5.891-3.479-7.777-8.421-4.679-14.354,1.533-2.939,3.494-5.654,5.263-8.47" transform="translate(2.405 20.661)" fill="#1c1505"/>
        <path id="Path_1062" data-name="Path 1062" d="M112.706,29.429c-.127,4.449-2.046,6.912-5.13,8.018-3.457,1.24-4.966-1.588-6.14-4.1-4.064-8.7-6.96-17.939-12.741-25.836-1.905-2.6,1.057-4.008,2.559-5.7a4.6,4.6,0,0,1,7.286-.045c6.07,8.8,11.169,18.2,14.166,27.668M95.015,3.876c-.677.4-1.448.589-1.626,1.021-.524,1.265.068,2.345.712,3.529,3.589,6.613,7.473,13.077,9.723,20.359.452,1.465.924,4.457,3.511,3.459,2.779-1.07,1.508-3.417.559-5.331C104.635,20.33,101.424,13.72,98.05,7.2,97.4,5.945,96.1,5.034,95.015,3.876" transform="translate(25.7 0)" fill="#1c1505"/>
        <path id="Path_1063" data-name="Path 1063" d="M143.074,38.842a3.871,3.871,0,0,1-3.527,3.855c-9.871,1.891-19.9,2.983-29.445,6.48-3.521,1.292-5.6-1.643-6.7-4.227-1.19-2.814.045-5.185,3.192-6.577,9.24-4.086,19.252-5,28.943-7.162,5.052-1.125,5.539,4.051,7.52,6.98.1.147.013.42.014.651m-9.542-4.017c-8.143,2.2-16.615,4.479-25.083,6.772a1.754,1.754,0,0,0-1.283,2.454,2.182,2.182,0,0,0,3.151,1.226c7.813-3.308,16.335-3.68,24.359-6.062,1.248-.371,3.339.1,3.165-2.213-.2-2.637-2.423-1.741-4.309-2.177" transform="translate(30.043 9.061)" fill="#1c1505"/>
        <path id="Path_1064" data-name="Path 1064" d="M128.131,19.7c.013-5.892,3.107-7.773,8.348-5.45,8.309,3.684,15.7,8.89,23.007,14.168,3.009,2.174,5.26,5.192,1.6,9.053-3.065,3.235-5.281,3.325-9.128.313-6.516-5.1-13.914-9.085-21-13.445-1.936-1.191-3.528-2.367-2.83-4.639m31.181,14.011a9.043,9.043,0,0,0-1.643-2.041q-11.345-7.315-22.782-14.491a1.824,1.824,0,0,0-2.763.659c-.6,1.593.207,2.571,1.8,3.453,7.359,4.087,14.565,8.441,20.9,14.062.891.793,1.776,1.284,2.793.457a13.669,13.669,0,0,0,1.7-2.1" transform="translate(37.339 3.876)" fill="#1c1505"/>
        <path id="Path_1065" data-name="Path 1065" d="M59.31,37.07c4.2.1,9.009-1.252,8.527,5.991-.254,3.82-1.9,5.011-5.271,5.741-8.86,1.918-18.2.877-26.78,4.791-2.838,1.294-5.039-1.483-5.3-4.036s-1.762-6.361,2.885-7.233C42.05,40.7,50.386,37.357,59.31,37.07m5.969,4.184c-11.235-1-20.232,2.086-29.3,4.737-1.181.345-3.569-.7-2.732,2,.451,1.453,1.567,1.934,3.525,1.408,6.224-1.672,12.556-2.949,18.88-4.223,2.854-.574,5.913-.366,9.623-3.921" transform="translate(8.769 10.805)" fill="#1c1505"/>
        <path id="Path_1066" data-name="Path 1066" d="M182.126,48.088c-.935,2.035-.284,4.937-3.5,5.507-9.736,1.725-19.541,3.182-29.14,5.49-4.082.982-4.442-1.81-5.095-3.7-.877-2.527-1.1-5.358,2.461-6.925,9.374-4.131,19.581-4.18,29.352-6.334,4.984-1.1,5.2,2.832,5.922,5.958m-29.722,7.1c7.4-1.942,15.318-4.2,23.636-4.211,1.8,0,2.188-1.993,2.106-3.285-.087-1.377-1.438-2.038-2.918-1.719q-12.068,2.6-24.124,5.249c-1.453.319-3.326.6-2.991,2.59.373,2.212,2.417.863,4.291,1.377" transform="translate(41.973 12.238)" fill="#1c1505"/>
        <path id="Path_1067" data-name="Path 1067" d="M91.557,34.64c.08,5.167-3.457,7.574-9.222,5.509-8.048-2.883-15.8-6.54-24.314-8.112-3.735-.69-4.45-3.884-3.594-6.942,1.28-4.563,5.267-4.428,8.86-3.811,9.01,1.548,17.283,5.313,25.589,8.964,2.085.917,2.984,2.2,2.68,4.392M88.178,35.9c-.614-1.053-.785-1.8-1.236-2.054-8.256-4.588-17.35-6.721-26.431-8.857-.938-.22-2.333-.192-2.276,1.371.053,1.442,1.081,2.188,2.456,2.5a141.022,141.022,0,0,1,21.451,7.062,7.129,7.129,0,0,0,6.037-.023" transform="translate(15.787 6.119)" fill="#1c1505"/>
        <path id="Path_1068" data-name="Path 1068" d="M23.68,79.96c-1.768,2.816-3.729,5.531-5.263,8.47-3.1,5.933-1.212,10.876,4.679,14.354,10.752,6.347,22.989,2.41,31.739-5.462,6-5.4,10.976-11.931,16.627-17.745,6.778-6.976,15.117-6.535,23.673-4.4,6.574,1.644,7.948,6.411,7.084,12.284-2.111,14.34,4.609,19.407,18.75,15.2,10.358-3.08,18.974-9.032,27.952-14.438,4.255-2.563,8.889-3.775,13.462-4.946,5.8-1.484,11.753,4.972,12.213,12.415.709,11.452,7.631,15.762,17.867,11,5.016-2.334,10-4.12,15.707-4.462,12.189-.731,17.185,12,16.514,21.169-.115,1.573-.948,2.379-2.461,2.272-2.006-.142-1.263-1.772-1.4-2.9-.381-3.118.453-6.229-1.076-9.394-3.3-6.832-8.526-9.332-15.917-7.924-6.27,1.195-11.059,6.216-17.753,6.157-8.3-.075-14.416-5.283-14.233-13.49.252-11.218-6.529-13.916-16.088-9.549C146.448,92.835,137.97,98.9,128.678,103.2c-6.344,2.932-13.061,6.229-20.689,3.378-6.312-2.36-9.766-6.606-9.815-13.082a22.547,22.547,0,0,0,.041-3.857c-.687-3.666,2.7-8.477-2.484-10.864-6.465-2.978-12.967-3.236-19.241.907-6.533,4.315-10.554,10.951-15.675,16.574-8.51,9.341-23.874,17.369-38.064,10.057-5.188-2.673-9.447-6.866-9.267-12.671A14.2,14.2,0,0,1,23.68,79.96" transform="translate(3.933 21.532)" fill="#f56608"/>
        <path id="Path_1069" data-name="Path 1069" d="M93.861,3c1.084,1.157,2.387,2.068,3.034,3.32,3.374,6.524,6.586,13.134,9.845,19.717.948,1.914,2.219,4.262-.559,5.331-2.587,1-3.059-1.995-3.511-3.459-2.25-7.282-6.135-13.746-9.723-20.359-.643-1.185-1.236-2.265-.712-3.529.178-.431.949-.617,1.626-1.021" transform="translate(26.854 0.876)" fill="#e5d153"/>
        <path id="Path_1070" data-name="Path 1070" d="M132.61,33.973c1.886.435,4.112-.46,4.309,2.177.174,2.316-1.917,1.842-3.165,2.213-8.025,2.382-16.547,2.754-24.359,6.062a2.182,2.182,0,0,1-3.151-1.226,1.754,1.754,0,0,1,1.283-2.454c8.468-2.293,16.939-4.574,25.083-6.772" transform="translate(30.964 9.913)" fill="#e5d153"/>
        <path id="Path_1071" data-name="Path 1071" d="M158.417,32.912a13.67,13.67,0,0,1-1.7,2.1c-1.017.827-1.9.336-2.793-.457-6.332-5.622-13.538-9.975-20.9-14.062-1.59-.882-2.4-1.86-1.8-3.453a1.824,1.824,0,0,1,2.763-.659q11.446,7.162,22.782,14.491a9.044,9.044,0,0,1,1.643,2.041" transform="translate(38.233 4.676)" fill="#e5d153"/>
        <path id="Path_1072" data-name="Path 1072" d="M64.6,40.344c-3.71,3.555-6.769,3.347-9.623,3.921-6.323,1.274-12.656,2.551-18.88,4.223-1.958.526-3.074.045-3.525-1.408-.837-2.7,1.551-1.653,2.732-2,9.063-2.651,18.061-5.739,29.3-4.737" transform="translate(9.452 11.715)" fill="#e5d153"/>
        <path id="Path_1073" data-name="Path 1073" d="M151.449,54.3c-1.874-.514-3.918.834-4.291-1.377-.336-1.989,1.537-2.271,2.991-2.59q12.056-2.649,24.124-5.249c1.48-.319,2.832.342,2.918,1.719.083,1.292-.3,3.284-2.106,3.285-8.318.008-16.233,2.27-23.636,4.211" transform="translate(42.928 13.132)" fill="#e5d153"/>
        <path id="Path_1074" data-name="Path 1074" d="M87.245,35.018a7.129,7.129,0,0,1-6.037.023,141.021,141.021,0,0,0-21.451-7.062c-1.374-.313-2.4-1.059-2.456-2.5-.057-1.563,1.338-1.59,2.276-1.371,9.081,2.135,18.176,4.268,26.431,8.857.451.249.623,1,1.236,2.054" transform="translate(16.72 7.006)" fill="#e5d153"/>
        <path id="Path_1075" data-name="Path 1075" d="M35.7,151.006c-.769,3.771,3.917,7.562-.712,10.225-1.867,1.073-6.548.881-6.774-1.757-.345-4.034,2.745-7.023,7.486-8.468" transform="translate(8.226 44.062)" fill="#85c442"/>
        <path id="Path_1076" data-name="Path 1076" d="M74.472,175.083c.223,1.278.448,2.417-1.062,2.637-1.173.171-3.059,1.238-3.439-.119-1.349-4.814-3.6-3.5-6.207-1.314-.842.705-1.846,1.362-2.8.519-1.077-.952-.813-2.153-.235-3.443,1.51-3.37,4.561-3.552,7.491-3.589,3.565-.043,4.616,3.182,6.251,5.308" transform="translate(17.574 49.539)" fill="#1c1505"/>
        <path id="Path_1077" data-name="Path 1077" d="M53.288,164.1a4.783,4.783,0,0,1-5.785-1.816c-.942-1.188-1.788-2.786-.872-4.118,1.111-1.619,3.37-.155,3.866.289,1.964,1.758,3.568,2.8,4.365-.544.419-1.756.3-3.846,2.58-3.275,2.261.565,1.882,3.223,1.71,4.867-.347,3.311-2.953,4.437-5.865,4.6" transform="translate(13.492 45.092)" fill="#1c1505"/>
        <path id="Path_1078" data-name="Path 1078" d="M69.483,149.715c-3.788,4.861-.73,6.943,3.793,8.962,1.129.5-.2,3.031-1.7,3.175A8.028,8.028,0,0,1,63.23,156.6c-1.1-3.124.836-6.548,4.227-8.27.754-.382,1.653-.043,2.027,1.381" transform="translate(18.36 43.24)" fill="#1c1505"/>
        <path id="Path_1079" data-name="Path 1079" d="M119.93,170.9c-3.922-3.67-3.078-7.02.381-8.7,3.033-1.47,7.166-3.693,9.953,1.356.763,1.384.116,2.4.028,3.514-.062.783-1.085.877-2.038.577-6.145-1.925-6.154-1.9-8.324,3.249" transform="translate(34.237 46.812)" fill="#1c1505"/>
        <path id="Path_1080" data-name="Path 1080" d="M132.353,160.057c2.226-1.5,4.709-1.885,6.031.589,1.234,2.306,2.355,5.256.319,7.809-1.559,1.954-3.41,3.965-6.193,3.825a3.014,3.014,0,0,1-2.637-2.453,1.668,1.668,0,0,1,1.5-2.258c8.088-1.408,3.618-4.559.975-7.512" transform="translate(37.876 46.354)" fill="#1c1505"/>
        <path id="Path_1081" data-name="Path 1081" d="M57,169.111c-1.2,3.512-6.533,7.491,1.66,8.36.695.074,1.923,1.079,1.847,1.387a3.4,3.4,0,0,1-2.6,2.395c-3.156,1-4.709-1.546-6.567-2.926-1.752-1.3-1.971-3.931-1.125-5.84,1.132-2.553,3.056-4.636,6.784-3.377" transform="translate(14.512 49.235)" fill="#1c1505"/>
        <path id="Path_1082" data-name="Path 1082" d="M106.382,164.669c.359.11,1.114.1,1.429.47,3.914,4.586,5.751,3.173,6.312-2.119.154-1.458,1.278-1.491,2.308-1.47,1.422.027,1.56,1.266,1.679,2.249.487,4.015-1.762,6.215-5.241,7.434-3.7,1.3-6.031-1.272-8.2-3.437-1.015-1.017.389-2.261,1.709-3.127" transform="translate(30.441 47.138)" fill="#1c1505"/>
        <path id="Path_1083" data-name="Path 1083" d="M29.553,179.489c-1.208-5.273.6-7.775,4.271-8.977,1.484-.487,3.573-1.429,4.454.745,1.1,2.726-1.448,2.223-2.864,2.792-2.834,1.141-3.342,3.214-1.4,5.457,1.185,1.371,3.819,2.515,1.168,4.187-1.878,1.185-3.364-1.624-5.057-2.544-.645-.349-.639-1.9-.571-1.66" transform="translate(8.515 49.571)" fill="#1c1505"/>
        <path id="Path_1084" data-name="Path 1084" d="M97.194,161.707c-2.527.652-7.629-3.419-8.07-6.489-.24-1.664.048-3.217,1.687-3.662,1.828-.5,1.734,1.3,2.075,2.454.875,2.966,2.688,3.581,5.269,1.993,1.218-.749,1.8-3.868,3.711-1.732,1.491,1.669-.32,3.59-1.61,5a24.8,24.8,0,0,1-3.063,2.44" transform="translate(25.984 44.198)" fill="#1c1505"/>
        <path id="Path_1085" data-name="Path 1085" d="M82.241,168.2c3.693-1.081,6.561-.217,7.681,4,.513,1.935.705,4.428-1.28,5.059-2.761.877-1.877-1.926-2.177-3.333-.628-2.94-2.8-2.044-4.532-1.749-1.678.285-3.745,3.922-4.816.1-1-3.589,2.538-3.6,5.123-4.078" transform="translate(22.451 48.955)" fill="#1c1505"/>
        <path id="Path_1086" data-name="Path 1086" d="M77.013,164.07c-4.3-.076-5.763,1.67-3.3,5.343.73,1.088,1.112,1.82.143,2.535-1.156.853-2.1.439-3.2-.711-2.527-2.627-2.075-5.369-.834-8.2,1.408-3.209,4.612-2.7,7.2-2.847,1.364-.077,3.549.9,3.325,2.764-.191,1.589-1.757,2.352-3.335,1.112" transform="translate(20.082 46.742)" fill="#1c1505"/>
        <path id="Path_1087" data-name="Path 1087" d="M53.554,167.995a7.181,7.181,0,0,1-1.23,1.753c-.8.656-1.422.132-2.075-.567-3.6-3.864-5.755-3.208-6.215,2.133a1.846,1.846,0,0,1-1.559,1.731,1.553,1.553,0,0,1-2.057-.921,5.965,5.965,0,0,1,.729-6.038c1.75-2.292,4.351-3.666,7.283-2.835a7.2,7.2,0,0,1,5.123,4.745" transform="translate(11.648 47.564)" fill="#1c1505"/>
        <path id="Path_1088" data-name="Path 1088" d="M88.722,158.246c1.4,3.235-.559,5.227-2.684,7.064-.867.751-1.855,1.94-3.193.535-1.117-1.174-.8-1.772.342-2.994,3.117-3.337,3.405-6.092-2.381-6.309a1.626,1.626,0,0,1-1.67-1.564c-.171-1.408.832-1.908,1.936-1.964,3.85-.194,7.357.231,7.65,5.233" transform="translate(23.085 44.637)" fill="#1c1505"/>
        <path id="Path_1089" data-name="Path 1089" d="M102.791,170.361c-3.676-4.442-7.1-9.017-8.984.1-.087.413-1.885.986-2.063.778a4.6,4.6,0,0,1-1.262-2.712,6.581,6.581,0,0,1,6.163-6.751c4.913-.483,7.445,2.244,6.146,8.587" transform="translate(26.402 47.188)" fill="#1c1505"/>
        <path id="Path_1090" data-name="Path 1090" d="M74.229,154.809c-4.069-3.679-3.3-8.005-.513-9.89,3.153-2.131,8.036-3.245,11.394,2.823-6.11-1.166-10.293.416-10.881,7.067" transform="translate(20.834 41.791)" fill="#1c1505"/>
        <path id="Path_1091" data-name="Path 1091" d="M70.114,162.486c-.491,2.6-1.871,2.73-3.713,1.735-4.873-2.63-5.835-.6-4.634,3.913.275,1.033-.311,1.6-.862,2.234-.858.983-1.511.083-2.13-.333-2.023-1.36-2.17-2.936-1.6-5.431,1.108-4.869,4.971-3.83,8.034-4.545,2.241-.522,3.306,1.509,4.906,2.427" transform="translate(16.599 46.679)" fill="#1c1505"/>
        <path id="Path_1092" data-name="Path 1092" d="M44.288,177.377c-.791.527-1.328.84-1.812,1.218-1.376,1.072-1.4,3.864-3.977,3.275-.438-.1-.928-1.495-.815-2.2.349-2.188,1.75-4.631,3.456-4.99,2.432-.512,5.491-1,7.8.682,1.84,1.343,2.528,4.183,1.314,5.659-1.768,2.15-3.047.506-3.726-1.726-.24-.791-1.457-1.283-2.235-1.918" transform="translate(10.991 50.829)" fill="#1c1505"/>
        <path id="Path_1093" data-name="Path 1093" d="M45.3,148.672c1.992-.344,3.453-1.085,4.5-.7,9.048,3.346,13.321-3.024,18.746-8.261,5.8-5.6,22.037-8.726,31.708-3.078,3.3,1.93,5.936,1.589,9.005,1.107,9.939-1.562,12.118-.615,17.084,8.385,1.076,1.949,2.3,1.362,3.722,1.174,10.427-1.378,19.811.612,26.983,8.9,2.078,2.4,4.232,1.318,6.445.974,6.319-.983,12.866-3.746,17.949,3.023,1.115,1.486,3,1.1,4.781.953,7.3-.6,11.954,3.59,12.777,11.014.18,1.628.553,3.794,1.661,4.666,5.044,3.97,8.859,8.518,9.573,15.173.217,2.011,2.338,1.62,3.546,2.228,8.075,4.063,17.332,19.94,16.107,28.709-.826,5.906-4.3,9.831-10.454,10.988a14.45,14.45,0,0,1-14.91-6.017c-3.74-5.711-7.377-11.231-16.269-9.894-6.233.937-11.578-3.227-15.766-7.991-2.022-2.3-3.856-3.44-7.259-2.23-6.574,2.338-11.445-1.788-15.814-5.772-2.181-1.989-3.262-3.027-6.288-1.214-4.193,2.509-9.624,2.08-13.6.468-5.91-2.394-10.63-.544-14.489,2.554-5.887,4.727-11.733,4.055-17.849,1.93-3.474-1.208-5.457-.964-8.112,2.119-7.676,8.908-17.346,12.485-28.988,8.381-4.574-1.612-8.836-1.685-12.042,2.586-1.037,1.384-2.454,1.517-3.8,2.1-5.694,2.472-11.87,3.5-16.849,8.052-4.829,4.413-10.416,3.3-16.067-1.542-4.811-4.121-5.986-9.564-2.4-15.959a13.509,13.509,0,0,0,1.613-9.6c-1.2-7.349,4.853-18.665,11.9-21.419,3.962-1.548,4.911-2.683,4.3-7.295-1.161-8.76,4.971-24.129,18.563-24.514m50.859,48.977-.14-.087c3.523,4.577,8.612,5.323,13.91,1.633,6.7-4.669,13.028-8.974,21.756-3.82a11.172,11.172,0,0,0,11.963-.446c3.352-2.126,7.331-1.607,10.374,1.894,3.435,3.95,7.551,5.9,12.729,3.162,2.489-1.318,4.512-.519,6.328,1.328,1.7,1.731,3.4,3.458,5.689,5.779-.342-1.988-.513-3.046-.708-4.1-.4-2.151-.94-4.431,1.83-5.406,3.351-1.179,2.476,1.858,3.142,3.337,1.3,2.9,3.055,1.433,4.454.275,1.261-1.042,2.338-2.178,3.673-.422,1.1,1.448.059,2.788-.863,3.816-1.652,1.839-3.877,2.466-6.327,2.655-1.185.092-2.966-2.448-3.475.369-.315,1.74.915,3.18,2.9,3.667,1.833.45,4.055,2.033,5.364,1.451,6.744-3.006,10.9,1.452,15.407,4.812,2.869,2.138,4.048.987,4.528-1.889.564-3.392,2.487-4.576,6.144-3.986-5.511,7.372,3.472,6.308,5.848,9.714-3.121.78-5.165,4-8.4,1.157a1.878,1.878,0,0,0-2.824.483,2.088,2.088,0,0,0,.519,2.866c2.507,1.409,5.1,4.016,8.019,2.719,2.439-1.083,5.6-2.106,6.056-5.839.42-3.462-.017-6.746-3.112-8.371-2.71-1.422-4.253-2.449-2.94-5.764.692-1.753-1.771-4.148-2.08-3.683-2.47,3.722-5.185,1.085-7.859.911-2.08-.134-2.736,1.548-2.773,3.5-.031,1.54,1.466,3.25-.388,4.7-3.682-.5-3.762-3.543-3.468-5.839a5.552,5.552,0,0,1,5.724-5.016c1.75-.068,3.55-.443,4.12-2.4.164-.563-.54-1.966-.983-2.029-5.327-.761-5.45-5.783-6.579-9.106a14.1,14.1,0,0,0-7.312-8.349c-2.638-1.285-2.745-3.268-3.682-5.2-7.133,7.359-7.7,7.354-13.317,2.6-2.071-1.752-2.819-3.319-.947-5.269,2.1-2.186,3.169-.048,4.476,1.355.844.906,1.828,3.39,3.319,1.405,1.731-2.3,5.5-2.959,5.588-6.316.053-1.985-1.948-2.753-3.757-2.688-5.3.19-9.625-1.975-13.829-4.926-1.249-.876-3.652-1.42-4.877-.81-9.389,4.67-16.246,1.032-22.934-5.688-4.127-4.147-6.055.541-9.094,2.947-3.539,2.8-1.518,4.06-.026,5.964.682.871,1.39,1.54.562,2.675a2.82,2.82,0,0,1-3.409.939c-3.8-1.111-6.018-6.908-3.807-10.3.864-1.329,2.941-2.018,1.665-4.386-5.542,1.438-10.631-1.253-15.981-2.055-2.806-.42-5.259-.619-5.338,3.262-.023,1.168-.415,2.288-1.713,2.2-1.4-.1-2.14-1.139-2.373-2.609-.652-4.131,2.648-6.813,8.34-7.292,1.431-.12,4.092,2.73,4.426-.984.26-2.883-2.559-2.817-4.476-3.578-2.931-1.164-4.927.924-7.011,2.075-2.323,1.283-3.866,1.51-6.091-.338-7.007-5.82-15.3-6.312-23.443-3.638-3.731,1.225-9.528,1.546-9.444,7.951l.08-.114c-4.848,3.461-12.776,6.152-16.963,5.194a8.86,8.86,0,0,0-5.575.416c3.231,2.559-1.708,5.478.346,8.027.753.935,1.7,2.323,3.138,1.21s3.228-2.515,4.069-.243c.752,2.033-1.973,3.852-3.346,3.881-5.5.109-5.712,3.011-4.618,7.119.333,1.249-.276,2.046-1.625,2.122-.823.047-2.227.158-1.967-.872,1.116-4.435-.86-5.63-4.607-4.357-3.307,1.123-5.964,3.034-4.355,7.414,1.363,3.707-1.377,5.056-4.117,5.727-10.178,2.493-14.109,7.981-13.3,21.61.145,2.438.912,4.358-1.473,6.791-3.421,3.49-1.925,9.763,1.992,12.355,5.032,3.329,8.168-.261,10.39-3.7,1.3-2,2.507-3.8,4.545-3.36,6.667,1.43,10.851-2.706,14.53-6.716,3.658-3.988,7.12-3.839,11.364-2,10.571,4.588,21.422,2.838,28.027-5.813a13.406,13.406,0,0,1,10.4-5.667M41.936,156.071c-4.741,1.444-7.831,4.433-7.486,8.468.226,2.638,4.908,2.83,6.774,1.757,4.628-2.662-.057-6.454.712-10.225" transform="translate(1.994 38.998)" fill="#1c1505"/>
        <path id="Path_1094" data-name="Path 1094" d="M67.836,147.385c-.084-6.4,5.714-6.726,9.444-7.951,8.142-2.674,16.435-2.182,23.443,3.639,2.224,1.847,3.768,1.621,6.091.337,2.084-1.151,4.079-3.237,7.011-2.075,1.917.762,4.736.7,4.476,3.578-.333,3.714-2.994.864-4.426.986-5.692.479-8.992,3.16-8.34,7.291.233,1.47.969,2.51,2.373,2.609,1.3.093,1.69-1.028,1.713-2.195.079-3.882,2.532-3.683,5.338-3.262,5.349.8,10.438,3.493,15.981,2.054,1.276,2.369-.8,3.058-1.665,4.386-2.212,3.4.006,9.192,3.807,10.3a2.822,2.822,0,0,0,3.409-.939c.828-1.135.12-1.8-.562-2.677-1.492-1.9-3.514-3.162.026-5.964,3.04-2.405,4.967-7.093,9.094-2.945,6.689,6.719,13.546,10.358,22.934,5.686,1.225-.61,3.627-.066,4.877.811,4.2,2.949,8.531,5.116,13.827,4.926,1.81-.065,3.811.7,3.758,2.687-.09,3.356-3.857,4.014-5.588,6.317-1.491,1.983-2.475-.5-3.319-1.405-1.307-1.4-2.378-3.541-4.476-1.355-1.872,1.949-1.124,3.516.947,5.268,5.615,4.751,6.184,4.755,13.317-2.6.937,1.935,1.044,3.917,3.682,5.2a14.1,14.1,0,0,1,7.312,8.35c1.129,3.322,1.252,8.344,6.579,9.1.443.063,1.147,1.468.983,2.029-.57,1.953-2.369,2.329-4.12,2.4a5.552,5.552,0,0,0-5.724,5.016c-.293,2.3-.213,5.344,3.468,5.84,1.854-1.452.357-3.161.388-4.7.037-1.949.694-3.631,2.773-3.5,2.674.173,5.389,2.811,7.859-.911.309-.465,2.772,1.93,2.078,3.682-1.311,3.316.23,4.342,2.941,5.764,3.1,1.625,3.532,4.909,3.112,8.372-.453,3.732-3.617,4.756-6.056,5.839-2.921,1.3-5.512-1.31-8.019-2.719a2.089,2.089,0,0,1-.519-2.868,1.878,1.878,0,0,1,2.824-.483c3.24,2.846,5.283-.376,8.4-1.157-2.376-3.405-11.359-2.342-5.849-9.713-3.656-.589-5.578.594-6.142,3.985-.479,2.876-1.659,4.027-4.528,1.89-4.51-3.36-8.663-7.818-15.407-4.813-1.309.583-3.53-1-5.364-1.449-1.985-.487-3.215-1.929-2.9-3.669.51-2.817,2.292-.276,3.476-.368,2.451-.19,4.675-.815,6.326-2.655.924-1.028,1.965-2.368.864-3.816-1.334-1.757-2.412-.621-3.673.422-1.4,1.157-3.153,2.621-4.454-.275-.665-1.479.209-4.517-3.142-3.338-2.771.975-2.23,3.255-1.83,5.406.2,1.054.366,2.112.708,4.1-2.285-2.321-3.989-4.048-5.689-5.778-1.816-1.847-3.839-2.646-6.328-1.328-5.179,2.741-9.294.787-12.729-3.162-3.043-3.5-7.022-4.021-10.374-1.894a11.172,11.172,0,0,1-11.963.444c-8.729-5.153-15.055-.849-21.756,3.82-5.3,3.691-10.387,2.945-13.911-1.633a10.14,10.14,0,0,0,8.62-2.108,2.607,2.607,0,0,0,.778-3.434c-.783-1.6-2.267-1.09-3.214-.417-1.635,1.164-3.449,2.93-4.4-.089-.933-2.957-2.55-5.322-5.145-3.449-1.89,1.365-.244,4.747.8,7,.488,1.054,1.78,1.736,2.708,2.587a13.406,13.406,0,0,0-10.4,5.667c-6.6,8.651-17.457,10.4-28.027,5.813-4.244-1.842-7.706-1.991-11.364,2-3.679,4.008-7.863,8.146-14.53,6.716-2.037-.437-3.249,1.354-4.545,3.359-2.222,3.437-5.358,7.027-10.39,3.7-3.917-2.59-5.413-8.864-1.992-12.353,2.385-2.434,1.617-4.355,1.473-6.791-.8-13.631,3.126-19.119,13.3-21.612,2.74-.67,5.48-2.019,4.117-5.727-1.61-4.379,1.048-6.29,4.355-7.412,3.746-1.272,5.723-.077,4.607,4.357-.26,1.028,1.145.918,1.966.872,1.349-.077,1.96-.875,1.626-2.122-1.094-4.108-.88-7.012,4.618-7.12,1.373-.027,4.1-1.847,3.346-3.879-.841-2.272-2.625-.873-4.069.242s-2.385-.275-3.138-1.21c-2.054-2.547,2.885-5.468-.346-8.026a8.851,8.851,0,0,1,5.575-.416c4.187.956,12.114-1.735,16.963-5.194a13.677,13.677,0,0,0-.459,3.656c.266,1.865-.837,4.848,2.174,5.081,3.378.264,1.536-2.549,1.834-4.144.491-2.622,2.084-3.616,4.631-2.451,1.146.523,2.288,1.51,3.479.623.411-.307.433-1.719.1-2.33a3.257,3.257,0,0,0-3.667-1.8c-2.718.519-5.445.987-8.168,1.477m121.6,41.562c1.477.043,2.558.5,1.829,2.27-1.163,2.828.766,3.586,2.736,3.582,5.308-.009,3.716,2.522,1.923,4.972-.859,1.174-1.452,2.307-.353,3.311,1.418,1.3,2.231-.544,3.112-1.15,3.609-2.479,2.717-8.822-1.531-11.361-1.067-.638-3.605-.375-2.16-2.618,2.1-3.261.243-4.9-2.315-5.663-3.218-.966-6.77-.948-8.46,2.726-.859,1.867-3.266,4.069-.785,6.313,2.573,2.328,4.064.965,4.871-1.878.071-.247.72-.329,1.132-.5m-48.4-1.775c5.074-1.589,10.629-5.254,12.608,2.666,3.824-2.449,3.793.875,4.931,3.012.492.922,1.068,3.341,3.139,2.106,1.319-.787,1.748-1.894.756-3.722-1.65-3.04.435-4.02,3.173-4.424,1.076-.159,3.474,1.409,2.969-1.542A2.782,2.782,0,0,0,165.276,183c-2.054.336-4.309,0-6.071,1.58-1.944,1.739-3.034.811-4.51-1-4.4-5.384-10.082-4.206-13.657,3.591m-15.095-6.645c-.274-.778-.419-1.94-1.783-2.067-1.173-.107-1.841.315-2.245,1.616-1.093,3.5-3.3,4.45-6.664,2.6a2.067,2.067,0,0,0-2.823.7c-.214.369.1,1.185.379,1.675,1.735,3.023,4.5,4.97,7.814,3.964,3.665-1.11,5.856-4.02,5.322-8.492m-37.286,3.864c-1.635-2.126-2.687-5.351-6.251-5.307-2.93.035-5.982.217-7.491,3.587-.577,1.289-.842,2.491.234,3.443.955.844,1.958.186,2.8-.519,2.612-2.186,4.857-3.5,6.207,1.314.38,1.356,2.265.289,3.439.119,1.51-.22,1.285-1.359,1.062-2.637m-19.97,13.192c-.295-1.712-1.7-2.449-3.006-3.09-2.307-1.134-4.922-.875-6.44.959-1.491,1.8-3.8,3.639-2.833,6.707.419,1.331,1.1,2.823,2.385,2.6,3.706-.659,3.155-8.8,9.358-5.446a10.911,10.911,0,0,0,.537-1.089,1.811,1.811,0,0,0,0-.636m-5.3-28.627c2.912-.159,5.517-1.285,5.865-4.595.172-1.646.55-4.3-1.71-4.867-2.283-.571-2.161,1.519-2.58,3.273-.8,3.35-2.4,2.3-4.365.545-.5-.444-2.755-1.909-3.866-.291-.916,1.332-.07,2.93.872,4.12a4.78,4.78,0,0,0,5.785,1.815m16.361,23.438c-2.529.682-5.54.242-6.314,4.113-.446,2.227-.858,4.207.723,5.9.732.784,1.647,2.3,3.068,1.491,1.148-.655,1.5-1.652.554-3.16-2.407-3.813.616-4.114,3.257-4.644,1.408-.283,4.246,2.491,3.968-1.549-.265-3.859-3.065-2.474-5.256-2.152m4.7-39.67c-.373-1.424-1.272-1.763-2.027-1.381-3.39,1.722-5.325,5.147-4.225,8.27a8.028,8.028,0,0,0,8.346,5.249c1.5-.145,2.828-2.671,1.7-3.175-4.523-2.019-7.579-4.1-3.793-8.962m66.324,24.757c2.17-5.144,2.179-5.172,8.324-3.248.953.3,1.976.2,2.038-.579.089-1.115.736-2.129-.028-3.514-2.788-5.048-6.919-2.826-9.953-1.356-3.458,1.677-4.3,5.026-.381,8.7m16.062-11.3c2.643,2.953,7.113,6.1-.975,7.512a1.668,1.668,0,0,0-1.5,2.258A3.015,3.015,0,0,0,167,178.4c2.783.14,4.632-1.87,6.192-3.824,2.036-2.554.916-5.5-.319-7.81-1.323-2.474-3.806-2.09-6.031-.589M21.818,194.584c-2.355.074-5.517.7-4.762,3.9.615,2.6,3.21,1.725,5.207.288,1.6-1.148,2.742.037,3.6,1.39.832,1.316-.191,4.8,3.049,3.284,2.647-1.243.948-4,.4-5.694-1.068-3.293-3.822-4.272-7.489-3.169m46.3-16.469c-3.727-1.26-5.652.824-6.783,3.377-.846,1.908-.628,4.538,1.125,5.839,1.859,1.381,3.412,3.924,6.567,2.927a3.394,3.394,0,0,0,2.6-2.4c.078-.309-1.152-1.312-1.846-1.386-8.194-.869-2.865-4.848-1.661-8.36m65.317-6.539c-1.32.867-2.724,2.111-1.709,3.127,2.165,2.165,4.5,4.736,8.2,3.437,3.48-1.219,5.728-3.419,5.242-7.434-.12-.983-.258-2.222-1.681-2.249-1.031-.021-2.155.012-2.308,1.47-.561,5.291-2.4,6.7-6.312,2.119-.314-.368-1.068-.36-1.429-.47M34.679,188.83c-.07-.236-.075,1.311.57,1.66,1.695.92,3.18,3.728,5.059,2.542,2.651-1.67.017-2.815-1.169-4.185-1.94-2.243-1.434-4.316,1.4-5.457,1.416-.568,3.967-.066,2.863-2.792-.881-2.174-2.969-1.232-4.454-.745-3.673,1.2-5.477,3.7-4.269,8.977m85.108-23.157a24.623,24.623,0,0,0,3.064-2.44c1.289-1.405,3.1-3.326,1.611-5-1.908-2.135-2.494.983-3.713,1.732-2.58,1.588-4.395.973-5.269-1.993-.341-1.156-.247-2.952-2.075-2.454-1.638.446-1.926,2-1.687,3.662.44,3.069,5.543,7.141,8.069,6.489M101.3,176.923c-2.585.482-6.127.491-5.122,4.078,1.07,3.825,3.136.19,4.816-.1,1.735-.3,3.9-1.192,4.53,1.748.3,1.407-.584,4.21,2.178,3.333,1.984-.629,1.792-3.124,1.279-5.057-1.119-4.223-3.988-5.087-7.681-4.006m-7.6-6.344c1.58,1.24,3.146.477,3.335-1.112.223-1.861-1.961-2.842-3.325-2.764-2.59.149-5.794-.362-7.2,2.848-1.241,2.826-1.694,5.568.833,8.2,1.1,1.148,2.046,1.562,3.2.709.969-.713.585-1.447-.143-2.533-2.465-3.673-1-5.419,3.3-5.344m-31.893,4.749a7.209,7.209,0,0,0-5.123-4.745c-2.932-.831-5.534.544-7.284,2.835a5.965,5.965,0,0,0-.727,6.038,1.55,1.55,0,0,0,2.055.92,1.841,1.841,0,0,0,1.559-1.73c.461-5.34,2.613-6,6.216-2.133.651.7,1.279,1.223,2.073.567a7.154,7.154,0,0,0,1.231-1.753m46.605-12.675c-.293-5-3.8-5.427-7.651-5.233-1.1.056-2.107.554-1.935,1.964a1.626,1.626,0,0,0,1.67,1.564c5.786.217,5.5,2.971,2.381,6.309-1.142,1.222-1.461,1.82-.342,2.994,1.338,1.405,2.325.214,3.193-.535,2.125-1.838,4.082-3.83,2.684-7.064M125.8,177.317c1.3-6.341-1.234-9.068-6.146-8.587a6.583,6.583,0,0,0-6.163,6.751,4.6,4.6,0,0,0,1.262,2.711c.178.208,1.978-.363,2.063-.778,1.885-9.115,5.308-4.541,8.984-.1m-78.94,25.207c.209-6.711-3.146-6.817-7.424-5.782-3.538.855-5.778,2.533-4.946,6.582a2.649,2.649,0,0,0,1.918,2.285c.393.087,1.328-.491,1.362-.829.69-7.031,4.785-4.237,9.09-2.255m44.811-46.156c.588-6.65,4.771-8.233,10.881-7.067-3.357-6.068-8.24-4.953-11.394-2.823-2.789,1.885-3.556,6.211.513,9.89m-8.35,12.565c-1.6-.917-2.665-2.949-4.906-2.426-3.063.713-6.925-.326-8.034,4.543-.568,2.494-.421,4.072,1.6,5.431.619.416,1.272,1.316,2.13.335.55-.63,1.137-1.2.862-2.235-1.2-4.511-.239-6.543,4.634-3.913,1.842.995,3.222.867,3.713-1.735M51.89,187.973c.778.636,1.995,1.129,2.235,1.918.678,2.232,1.957,3.875,3.724,1.727,1.216-1.478.527-4.317-1.312-5.661-2.306-1.684-5.364-1.194-7.8-.682-1.705.359-3.107,2.8-3.456,4.99-.112.705.377,2.1.816,2.2,2.573.589,2.6-2.2,3.976-3.276.486-.378,1.023-.69,1.814-1.218m84.3-7.374c-5.634-1.179-7.749,2.007-7.587,6.246.142,3.706,3.311,5.711,6.933,6.273a2.981,2.981,0,0,0,3.151-1.793c.731-1.541-.751-1.7-1.482-2.026-6.393-2.811-6.4-2.783-1.015-8.7M33,210.313c-.738-3.244-3.483-2.378-5.6-2.867-3.828-.881-5.366,1.877-6.587,4.453-.9,1.89-.745,4.467,1.163,5.76,1.133.766,2.966.235,2.721-2.055-.549-5.14,1.59-6.114,5.906-3.822,1.522.807,2.427.318,2.4-1.469M179.378,186.4a15.485,15.485,0,0,0-.847-3.313,5.446,5.446,0,0,0-4.514-2.969c-.571-.028-1.537.26-1.688.647-.913,2.361,1.533,2.453,2.538,3.561,1.894,2.086,1.321,3.857-1.115,4.847-1.545.628-3.87.654-2.546,3.062,1.293,2.352,3.275.823,4.866-.015,2.69-1.418,4.329-3.406,3.306-5.82" transform="translate(3.388 40.231)" fill="#85c442"/>
        <path id="Path_1095" data-name="Path 1095" d="M150.872,179.038c-.411.172-1.061.256-1.13.5-.809,2.842-2.3,4.2-4.873,1.877-2.48-2.243-.074-4.445.785-6.313,1.69-3.674,5.242-3.691,8.461-2.726,2.558.767,4.415,2.4,2.314,5.665-1.446,2.244,1.094,1.98,2.161,2.618,4.246,2.538,5.139,8.882,1.531,11.361-.882.6-1.695,2.445-3.113,1.15-1.1-1.005-.506-2.137.353-3.311,1.793-2.451,3.385-4.981-1.923-4.972-1.97,0-3.9-.754-2.736-3.582.729-1.772-.353-2.228-1.829-2.27" transform="translate(41.953 50.141)" fill="#1c1505"/>
        <path id="Path_1096" data-name="Path 1096" d="M111.8,177.6c3.574-7.8,9.258-8.975,13.657-3.59,1.475,1.806,2.565,2.733,4.51.995,1.762-1.576,4.019-1.244,6.073-1.579a2.781,2.781,0,0,1,3.335,2.27c.505,2.953-1.892,1.383-2.969,1.542-2.737.4-4.822,1.386-3.173,4.426.992,1.827.563,2.935-.756,3.72-2.071,1.235-2.647-1.183-3.138-2.106-1.138-2.138-1.108-5.462-4.932-3.011-1.979-7.92-7.534-4.256-12.608-2.668" transform="translate(32.623 49.807)" fill="#1c1505"/>
        <path id="Path_1097" data-name="Path 1097" d="M103.187,171.365c.534,4.472-1.657,7.381-5.322,8.492-3.317,1-6.079-.942-7.814-3.965-.282-.491-.593-1.307-.379-1.675a2.067,2.067,0,0,1,2.823-.7c3.361,1.85,5.571.9,6.664-2.6.406-1.3,1.072-1.723,2.245-1.615,1.364.127,1.509,1.289,1.783,2.067" transform="translate(26.145 49.395)" fill="#1c1505"/>
        <path id="Path_1098" data-name="Path 1098" d="M76.969,185.508c-.927-.851-2.219-1.533-2.708-2.589-1.04-2.248-2.684-5.631-.8-7,2.6-1.873,4.214.492,5.146,3.449.951,3.019,2.764,1.253,4.4.089.946-.673,2.431-1.183,3.213.417a2.605,2.605,0,0,1-.776,3.434,10.144,10.144,0,0,1-8.621,2.108l.141.087" transform="translate(21.184 51.138)" fill="#1c1505"/>
        <path id="Path_1099" data-name="Path 1099" d="M58.62,184.949a1.811,1.811,0,0,1,0,.636,10.754,10.754,0,0,1-.537,1.088c-6.2-3.359-5.652,4.789-9.358,5.447-1.284.227-1.966-1.265-2.385-2.6-.962-3.068,1.342-4.908,2.833-6.707,1.518-1.832,4.132-2.093,6.44-.959,1.306.642,2.711,1.378,3.006,3.091" transform="translate(13.456 52.866)" fill="#1c1505"/>
        <path id="Path_1100" data-name="Path 1100" d="M65.873,180.209c2.195-.337,4.994-1.723,5.26,2.137.278,4.039-2.56,1.266-3.968,1.549-2.64.53-5.663.831-3.258,4.643.952,1.509.594,2.506-.554,3.161-1.421.81-2.334-.707-3.067-1.492-1.581-1.692-1.169-3.673-.725-5.9.774-3.872,3.785-3.431,6.312-4.1" transform="translate(17.262 52.432)" fill="#1c1505"/>
        <path id="Path_1101" data-name="Path 1101" d="M20.616,181.874c3.666-1.1,6.419-.124,7.489,3.169.552,1.7,2.249,4.451-.4,5.693-3.241,1.522-2.217-1.966-3.05-3.284-.854-1.351-2-2.537-3.6-1.389-2,1.436-4.592,2.316-5.209-.288-.756-3.2,2.407-3.829,4.763-3.9" transform="translate(4.592 52.943)" fill="#1c1505"/>
        <path id="Path_1102" data-name="Path 1102" d="M41.736,189.337c-4.306-1.983-8.4-4.776-9.09,2.255-.034.338-.969.916-1.362.829a2.652,2.652,0,0,1-1.92-2.285c-.831-4.048,1.409-5.727,4.946-6.582,4.28-1.035,7.633-.929,7.425,5.782" transform="translate(8.518 53.419)" fill="#1c1505"/>
        <path id="Path_1103" data-name="Path 1103" d="M109.769,171c-5.391,5.918-5.378,5.891,1.014,8.7.732.322,2.214.484,1.482,2.025a2.979,2.979,0,0,1-3.149,1.793c-3.623-.562-6.791-2.566-6.933-6.273-.163-4.238,1.953-7.424,7.587-6.246" transform="translate(29.813 49.826)" fill="#1c1505"/>
        <path id="Path_1104" data-name="Path 1104" d="M31.04,194.637c.026,1.785-.878,2.276-2.4,1.467-4.316-2.292-6.456-1.316-5.906,3.822.245,2.292-1.589,2.823-2.721,2.057-1.909-1.293-2.059-3.87-1.164-5.76,1.221-2.576,2.761-5.334,6.587-4.453,2.12.488,4.866-.377,5.6,2.866" transform="translate(5.346 55.908)" fill="#1c1505"/>
        <path id="Path_1105" data-name="Path 1105" d="M143.418,176.858c1.023,2.413-.616,4.4-3.306,5.82-1.591.838-3.573,2.368-4.866.015-1.324-2.408,1-2.434,2.546-3.061,2.436-.99,3.009-2.761,1.115-4.847-1.005-1.108-3.452-1.2-2.538-3.561.151-.388,1.117-.676,1.688-.647a5.446,5.446,0,0,1,4.514,2.969,15.485,15.485,0,0,1,.847,3.313" transform="translate(39.349 49.772)" fill="#1c1505"/>
        <path id="Path_1106" data-name="Path 1106" d="M55.23,145.588c2.723-.49,5.45-.957,8.168-1.478a3.259,3.259,0,0,1,3.667,1.8c.337.611.315,2.023-.1,2.33-1.191.887-2.333-.1-3.479-.624-2.547-1.164-4.14-.171-4.631,2.451-.3,1.6,1.542,4.408-1.834,4.145-3.011-.234-1.908-3.215-2.174-5.081a13.686,13.686,0,0,1,.459-3.657l-.08.114" transform="translate(15.994 42.029)" fill="#1c1505"/>
        <path id="Path_1107" data-name="Path 1107" d="M23.229,345.811a18.669,18.669,0,0,0-8.627-8.64c-2.585-1.385-3.881-3.979-5.184-6.42-1.659-3.1-3.395-6.2-3.328-9.956.017-.951-.749-1.965-1.292-2.869A32.339,32.339,0,0,1,.176,306.9a9.772,9.772,0,0,1,1.413-7.278c.9-1.377,1.462-2.984,2.447-4.284a36.766,36.766,0,0,1,3.248-3.133,31.831,31.831,0,0,0,3.328-3.7,32.1,32.1,0,0,1,12.342-10.8c1.983-.946,4.276-1.24,6.4-1.823a61.6,61.6,0,0,0-5.6-15.03c-2.288-4.092-3.421-8.891-.2-13.674,2.022-3,3.532-6.215,7.036-7.9.762-.366.982-1.743,1.612-2.523,5.221-6.455,11.062-12.024,19.956-12.585,3.8-.24,7.631-.13,11.447-.14,6.345-.017,12.691,0,19.036,0q11.624.008,23.25.014c3.75,0,7.521.176,11.244-.156,2.642-.236,5.19-1.413,7.833-1.778a140.024,140.024,0,0,1,15.091-1.541c6.149-.172,12.13,1.267,18.133,2.616,3.639.816,7.548.515,11.337.553,4.769.047,9.54-.1,14.31-.116q3.418-.016,6.835.125c2.076.083,3.434,1.044,3.471,3.078.054,2.983,2.081,4.461,3.883,6.211.813.788,1.9,1.515,2.27,2.493a5.944,5.944,0,0,0,3.837,3.643c3.227,1.151,5.1,3.853,6.65,6.512,3.272,5.622,5.34,11.656,3.966,18.38a4.094,4.094,0,0,0,.558,2.25,20.836,20.836,0,0,1,1.748,13.185c-.844,4.182-4.784,7.819-8.54,8.12-4.9.393-9.832.482-14.75.694-3.415.146-6.832.279-10.77.439,1.825,2.609,3.394,4.835,4.946,7.072,4.074,5.875,6.224,12.253,5.325,19.514a7.224,7.224,0,0,0,.665,3.554c2.153,4.979,2.85,9.945.456,15.048a8.851,8.851,0,0,1-6.88,5.387c-4.373.593-8.818.7-13.237.9-4.327.2-8.661.27-12.992.4-5.419.158-10.838.289-16.255.481-4.343.154-8.683.416-13.026.566-5.22.178-10.443.264-15.663.434-5.11.167-10.218.406-15.327.583-5.29.182-10.581.311-15.871.493-4.34.15-8.68.369-13.02.514-5.286.176-10.573.283-15.859.464-4.343.149-8.691.608-13.021.461-2.87-.1-4.454,1.111-5.929,3.281-1.683,2.479-3.75,2.006-7.067,1.324-1.436-.295-2.82-.845-4.228-1.28l-2.785-2.139m129.565-64.105,13.25,7.574c1.908-2.193,1.293-4.962,1.385-7.561.008-.231-.825-.7-1.275-.707q-6.17-.11-12.343-.054c-.349,0-.694.512-1.035.772l-.058-.456-.16.072.236.359M56.65,338.7c.849.013,1.656.061,2.461.03,2.3-.089,4.6-.24,6.9-.314,5.351-.172,10.7-.293,16.054-.474,4.28-.145,8.558-.372,12.838-.517,5.289-.18,10.58-.306,15.871-.465q6.59-.2,13.183-.415,7.753-.267,15.507-.57c5.174-.2,10.345-.433,15.52-.607,5.287-.178,10.576-.276,15.863-.459,4.278-.146,8.585-.762,12.822-.439,4.356.332,7.159-3.3,6.774-7.386a22.512,22.512,0,0,0-3.718-10.244c-5.289-8.2-12.618-14.283-20.311-20.086a116.491,116.491,0,0,0-19.077-11.677A69.695,69.695,0,0,0,124.4,278.34a57.038,57.038,0,0,0-23.653,1.758,41.4,41.4,0,0,0-17.438,10.427A37.731,37.731,0,0,0,73.9,306.236c-1.448,4.608-2.643,9.313-4.383,13.807a53.778,53.778,0,0,1-5.435,10.8c-1.948,2.869-4.791,5.13-7.43,7.857M87.826,275.8a17.526,17.526,0,0,0,2.023.076c3.069-.279,6.192.331,9.221-.81a32.947,32.947,0,0,1,6.078-1.637,68.994,68.994,0,0,1,23.951.063c4.511.814,8.867,2.391,13.581,2.285,8.632-.2,17.27-.124,25.907-.124,2.615,0,3.653.836,3.78,3.394.094,1.9.807,3.325,2.457,3.985a9.848,9.848,0,0,0,3.835.459c9.245-.256,18.487-.58,27.73-.881a5.577,5.577,0,0,0,5.121-3.82c1.4-3.638.36-6.965-1.164-10.244-3.882-8.349-10.609-14.286-17.359-20.142a74.494,74.494,0,0,0-9.127-6.527c-4.51-2.846-9.125-5.531-13.772-8.147-7.793-4.388-16.335-6.429-25.118-7.439a53.463,53.463,0,0,0-21.839,1.63,41.726,41.726,0,0,0-18.185,10.746A36.142,36.142,0,0,0,95.619,254.6c-1.405,5.075-3.155,10.062-4.909,15.031a66.3,66.3,0,0,1-2.883,6.168M41.595,339.04c.645-.155,1.386-.332,2.126-.513a27.041,27.041,0,0,0,15.752-10.611,44.738,44.738,0,0,0,6.673-14.127,4.67,4.67,0,0,0-.221-3.881c-1.913-3.382-3.713-6.847-5.872-10.066-2.781-4.147-5.029-8.783-10.152-10.892-4.944-2.036-9.7-4.529-14.6-6.659a11.742,11.742,0,0,0-7.778-.49c-3.861.979-6.672,3.443-9.4,6.048a3.046,3.046,0,0,0-.628,2.267,2.91,2.91,0,0,1-2.2,3.476,6.173,6.173,0,0,0-2.365,1.032c-1.991,1.781-4.07,3.351-5.655,5.718-2.438,3.639-1.82,6.781-.1,10.511,1.36,2.945,2.9,5.816,4.1,8.823,1.046,2.625,1.455,5.525,2.661,8.057a18.135,18.135,0,0,0,4.039,5.095c2.29,2.165,5.206,3.753,7.2,6.136,2.275,2.728,4.291,5.36,8.734,5.287.619-2.12,1.254-4.439,1.978-6.729.614-1.94,2.3-2.5,3.79-1.176a15.117,15.117,0,0,1,1.925,2.692M38.4,237.784c.134.218.267.438.4.656,1.146-.643,2.334-1.223,3.427-1.947a2.589,2.589,0,0,1,3.608.234c1.008,1,1.085,3.022.09,3.838a9.049,9.049,0,0,1-3.171,1.985c-2.979.769-6.039,1.214-9.058,1.834a3.536,3.536,0,0,0-1.939.732,33.753,33.753,0,0,0-3.636,5.2,7.113,7.113,0,0,0-.832,3.914c.437,3.848,2.776,6.937,4.529,10.259a18.484,18.484,0,0,1,1.374,3.687c.45,1.62.674,3.3,1.128,4.919a24.34,24.34,0,0,0,1.223,2.926c3.117,0,6.228.021,9.337,0,7.054-.044,14.108-.112,21.161-.159,4.824-.032,9.647-.031,14.469-.083a1.662,1.662,0,0,0,1.236-.456,62.606,62.606,0,0,0,6.39-14.29,3.272,3.272,0,0,0-.178-1.958c-2.235-5.791-5.81-10.816-9.351-15.83-1.4-1.987-3.041-4.135-5.092-5.274-4.661-2.591-9.638-4.617-14.5-6.845a13.523,13.523,0,0,0-8.05-1.451c-5.283.948-9.128,4.246-12.565,8.11m46.889,43.477L48.15,281.4c-.019.161-.04.322-.059.483l24.451,13.676a52.6,52.6,0,0,1,12.745-14.295m9.055-37.95a48.948,48.948,0,0,1,13.172-13.976l-37.529.181c.026.14.05.278.076.417l24.28,13.378m92.873,64.758.771-.4c-1.576-3.032-3.08-6.1-4.754-9.08a41.622,41.622,0,0,0-3.369-4.933,9.929,9.929,0,0,0-2.66-2.613,39.911,39.911,0,0,0-4.915-2.076,4.7,4.7,0,0,1-.647,1.792c-1.841,1.951-.484,2.821,1,4.02,3.189,2.584,6.254,5.327,9.3,8.084,1.83,1.659,3.525,3.465,5.281,5.2m21.671-51.846.643-.339c-1.241-2.675-2.307-5.451-3.782-7.991a10.215,10.215,0,0,0-4.683-4.278,15.911,15.911,0,0,1-4.271-3.51,30.4,30.4,0,0,1-2.62-3.51,16.782,16.782,0,0,1-1.328,2.969c-.687.944-.411,1.442.377,2.08,2.6,2.112,5.19,4.245,7.718,6.443,1.147,1,2.139,2.174,3.2,3.267q2.37,2.436,4.741,4.869m-20.549-18.347c.332-2.553.7-4.707.842-6.876.046-.726.226-1.881-1.3-1.867-4.618.045-9.238-.021-14.388-.045l14.845,8.788M86.916,245.509c1.35,2.312,2.43,4.165,3.617,6.2,1.669-2.817,1.6-3.463-.236-4.461-.918-.5-1.858-.956-3.381-1.736M68.771,303.638c1.533-2.387,1.522-3.182.035-4.011-1.041-.581-2.1-1.138-3.373-1.829l3.338,5.84" transform="translate(0 64.357)" fill="#1c1505"/>
        <path id="Path_1108" data-name="Path 1108" d="M43.854,325.756c2.639-2.728,5.482-4.989,7.43-7.857a53.852,53.852,0,0,0,5.436-10.8c1.739-4.5,2.934-9.2,4.382-13.807a37.758,37.758,0,0,1,9.416-15.711,41.408,41.408,0,0,1,17.439-10.427A57.036,57.036,0,0,1,111.61,265.4a69.712,69.712,0,0,1,22.933,6.737A116.537,116.537,0,0,1,153.62,283.81c7.691,5.8,15.021,11.887,20.311,20.086a22.526,22.526,0,0,1,3.718,10.244c.384,4.091-2.418,7.718-6.774,7.386-4.238-.323-8.545.293-12.824.439-5.286.181-10.576.28-15.863.459-5.174.174-10.346.409-15.52.607s-10.337.391-15.507.57q-6.59.227-13.183.415c-5.29.158-10.581.285-15.871.465-4.28.145-8.557.372-12.837.517-5.352.181-10.7.3-16.056.474-2.3.074-4.6.223-6.9.313-.8.032-1.612-.015-2.462-.028" transform="translate(12.796 77.299)" fill="#f9c80b"/>
        <path id="Path_1109" data-name="Path 1109" d="M67.989,274.607a66.792,66.792,0,0,0,2.883-6.168c1.754-4.971,3.5-9.956,4.909-15.031a36.118,36.118,0,0,1,9.328-15.933,41.721,41.721,0,0,1,18.183-10.746,53.449,53.449,0,0,1,21.84-1.63c8.783,1.01,17.324,3.051,25.118,7.438,4.647,2.617,9.262,5.3,13.77,8.149a74.012,74.012,0,0,1,9.126,6.527c6.751,5.856,13.479,11.793,17.36,20.142,1.524,3.279,2.567,6.606,1.164,10.243a5.577,5.577,0,0,1-5.121,3.821c-9.243.3-18.486.625-27.73.881a9.855,9.855,0,0,1-3.837-.459c-1.648-.66-2.363-2.082-2.457-3.985-.125-2.558-1.164-3.394-3.78-3.394-8.636,0-17.274-.072-25.907.123-4.712.107-9.07-1.471-13.581-2.285a68.984,68.984,0,0,0-23.95-.062,32.993,32.993,0,0,0-6.079,1.637c-3.028,1.141-6.152.531-9.221.81a17.816,17.816,0,0,1-2.022-.076" transform="translate(19.839 65.554)" fill="#f9c80b"/>
        <path id="Path_1110" data-name="Path 1110" d="M40.319,325.3a15.145,15.145,0,0,0-1.926-2.693c-1.492-1.321-3.177-.765-3.79,1.177-.723,2.29-1.359,4.608-1.978,6.728-4.441.072-6.459-2.559-8.734-5.286-1.989-2.385-4.9-3.971-7.2-6.137A18.2,18.2,0,0,1,12.656,314c-1.207-2.533-1.613-5.433-2.66-8.057-1.2-3.009-2.74-5.879-4.1-8.824-1.725-3.731-2.341-6.872.1-10.511,1.585-2.367,3.664-3.935,5.655-5.717a6.156,6.156,0,0,1,2.365-1.032,2.908,2.908,0,0,0,2.2-3.475,3.049,3.049,0,0,1,.628-2.267c2.733-2.607,5.544-5.07,9.406-6.049a11.743,11.743,0,0,1,7.778.49c4.906,2.13,9.66,4.625,14.6,6.659,5.123,2.11,7.371,6.746,10.153,10.892,2.16,3.22,3.958,6.685,5.871,10.066a4.676,4.676,0,0,1,.222,3.881A44.754,44.754,0,0,1,58.2,314.18,27.038,27.038,0,0,1,42.444,324.79c-.74.181-1.482.358-2.125.514m-15.3-13.488a6.759,6.759,0,0,0,5.03.822,4.22,4.22,0,0,1,2.409.486c1.188.579,2.232,1.453,3.41,2.058a2.623,2.623,0,0,0,3.84-1.1c.828-1.449.052-2.341-1.072-3.16-1.312-.953-2.585-1.961-3.865-2.958a4.19,4.19,0,0,0-4.591-.811c-.9.4-1.491.093-1.766-.995A40.614,40.614,0,0,0,27,302.045c-1.11-3-2.208-6.006-3.375-8.984-.5-1.284-1.1-2.631-2.895-2.326a2.849,2.849,0,0,0-2.436,3.293,16.513,16.513,0,0,0,.917,3.24q1.845,4.926,3.788,9.811c.632,1.6,1.342,3.161,2.018,4.74" transform="translate(1.277 78.092)" fill="#f9c80b"/>
        <path id="Path_1111" data-name="Path 1111" d="M32.242,235.76c3.436-3.864,7.282-7.162,12.564-8.11a13.51,13.51,0,0,1,8.05,1.451c4.862,2.227,9.84,4.254,14.5,6.844,2.05,1.141,3.688,3.289,5.091,5.276,3.542,5.013,7.116,10.039,9.351,15.83a3.263,3.263,0,0,1,.18,1.958,62.719,62.719,0,0,1-6.39,14.29,1.669,1.669,0,0,1-1.236.456c-4.824.05-9.647.05-14.471.083-7.053.047-14.106.115-21.16.159-3.111.019-6.221,0-9.337,0a24.28,24.28,0,0,1-1.225-2.927c-.453-1.617-.678-3.3-1.126-4.918a18.567,18.567,0,0,0-1.376-3.687c-1.753-3.323-4.092-6.411-4.529-10.259a7.125,7.125,0,0,1,.832-3.914,33.757,33.757,0,0,1,3.636-5.2,3.537,3.537,0,0,1,1.94-.732c3.018-.62,6.079-1.066,9.057-1.834a9.054,9.054,0,0,0,3.173-1.985c.993-.816.916-2.841-.09-3.838a2.59,2.59,0,0,0-3.609-.234c-1.092.723-2.28,1.3-3.427,1.947l-.4-.656m3.8,31.526c2.447.837,4.777,1.8,7.2,2.367a3.156,3.156,0,0,0,2.529-1.234,2.7,2.7,0,0,0-.143-2.5,4.563,4.563,0,0,0-2.488-1.668c-3.578-.857-5.373-3.317-6.679-6.512a7.247,7.247,0,0,0-2.562-3.06,2.613,2.613,0,0,1-1.257-1.958,4.928,4.928,0,0,0-2.417-2.815c-.515-.261-2.084.643-2.568,1.405-1.457,2.3.172,6.871,2.568,8.111a5.238,5.238,0,0,1,1.728,1.686c1.384,1.988,2.68,4.037,4.087,6.177M53.354,262.8a16.271,16.271,0,0,0,4.087.6,27.3,27.3,0,0,0,5.574-1.328,2.883,2.883,0,0,0,2.164-3.354,3.056,3.056,0,0,0-3.7-1.877,34.709,34.709,0,0,1-3.676.971,2.618,2.618,0,0,1-2.1-.8c-1.4-2.113-2.633-4.34-3.821-6.583a2.834,2.834,0,0,0-3.611-1.588c-1.612.559-1.653,1.859-1.442,3.195.679,4.294,3.806,7.088,6.526,10.763" transform="translate(6.156 66.381)" fill="#f9c80b"/>
        <path id="Path_1112" data-name="Path 1112" d="M74.425,267.549A52.575,52.575,0,0,0,61.68,281.843L37.229,268.168c.019-.161.04-.323.059-.483l37.136-.136" transform="translate(10.863 78.068)" fill="#f9c80b"/>
        <path id="Path_1113" data-name="Path 1113" d="M78.535,241.327,54.254,227.949c-.026-.138-.052-.278-.076-.416l37.529-.182a48.965,48.965,0,0,0-13.172,13.976" transform="translate(15.809 66.339)" fill="#f9c80b"/>
        <path id="Path_1114" data-name="Path 1114" d="M148.646,292.615c-1.756-1.74-3.45-3.547-5.281-5.2-3.043-2.758-6.108-5.5-9.3-8.085-1.48-1.2-2.837-2.068-1-4.019a4.712,4.712,0,0,0,.647-1.792,39.433,39.433,0,0,1,4.915,2.076,9.91,9.91,0,0,1,2.66,2.613,41.6,41.6,0,0,1,3.369,4.932c1.674,2.976,3.178,6.049,4.754,9.081l-.771.4" transform="translate(38.57 79.809)" fill="#f9c80b"/>
        <path id="Path_1115" data-name="Path 1115" d="M165.416,252.6q-2.372-2.434-4.741-4.869c-1.064-1.093-2.058-2.268-3.2-3.267-2.528-2.2-5.115-4.331-7.717-6.443-.789-.638-1.064-1.135-.377-2.08a16.877,16.877,0,0,0,1.328-2.969,30.252,30.252,0,0,0,2.62,3.51,15.891,15.891,0,0,0,4.271,3.51,10.215,10.215,0,0,1,4.683,4.278c1.474,2.54,2.541,5.316,3.782,7.991l-.643.338" transform="translate(43.472 67.979)" fill="#f9c80b"/>
        <path id="Path_1116" data-name="Path 1116" d="M149.149,235.948,134.3,227.159c5.15.026,9.77.092,14.388.046,1.526-.014,1.346,1.141,1.3,1.867-.141,2.169-.51,4.324-.842,6.876" transform="translate(39.189 66.283)" fill="#f9c80b"/>
        <path id="Path_1117" data-name="Path 1117" d="M118.262,268.1c.347-.274.692-.783,1.041-.785q6.172-.054,12.344.054c.448.008,1.281.475,1.274.707-.092,2.6.523,5.367-1.385,7.561l-13.25-7.574Z" transform="translate(34.508 77.996)" fill="#f9c80b"/>
        <path id="Path_1118" data-name="Path 1118" d="M67.284,239.873c1.523.779,2.462,1.238,3.381,1.735,1.84,1,1.905,1.644.235,4.462-1.186-2.032-2.266-3.884-3.616-6.2" transform="translate(19.633 69.993)" fill="#f9c80b"/>
        <path id="Path_1119" data-name="Path 1119" d="M53.991,286.191l-3.338-5.84c1.278.691,2.332,1.248,3.373,1.829,1.487.829,1.5,1.624-.035,4.011" transform="translate(14.78 81.804)" fill="#f9c80b"/>
        <path id="Path_1120" data-name="Path 1120" d="M118.335,267.99l-.236-.359.16-.071c.019.151.039.3.054.462,0,.005.022-.032.022-.032" transform="translate(34.46 78.072)" fill="#fdfdfd"/>
        <path id="Path_1121" data-name="Path 1121" d="M21.88,306.608c-.676-1.579-1.386-3.143-2.018-4.74q-1.934-4.889-3.788-9.811a16.513,16.513,0,0,1-.917-3.24,2.849,2.849,0,0,1,2.436-3.293c1.8-.3,2.391,1.042,2.895,2.327,1.168,2.979,2.266,5.984,3.375,8.984a40.611,40.611,0,0,1,1.412,4.111c.275,1.088.869,1.39,1.766.995a4.19,4.19,0,0,1,4.591.811c1.28,1,2.553,2,3.865,2.958,1.124.819,1.9,1.71,1.072,3.16a2.623,2.623,0,0,1-3.84,1.1c-1.178-.6-2.222-1.479-3.41-2.058a4.219,4.219,0,0,0-2.409-.486,6.759,6.759,0,0,1-5.03-.822" transform="translate(4.412 83.301)" fill="#1c1505"/>
        <path id="Path_1122" data-name="Path 1122" d="M34.687,262.233c-1.407-2.14-2.7-4.189-4.087-6.177a5.267,5.267,0,0,0-1.73-1.686c-2.395-1.24-4.024-5.814-2.567-8.11.484-.763,2.053-1.668,2.568-1.407a4.926,4.926,0,0,1,2.417,2.816,2.613,2.613,0,0,0,1.257,1.957,7.252,7.252,0,0,1,2.562,3.062c1.3,3.193,3.1,5.654,6.679,6.512a4.557,4.557,0,0,1,2.488,1.668,2.7,2.7,0,0,1,.143,2.5,3.154,3.154,0,0,1-2.529,1.234,75.736,75.736,0,0,1-7.2-2.367" transform="translate(7.514 71.433)" fill="#1c1505"/>
        <path id="Path_1123" data-name="Path 1123" d="M47.563,258.02c-2.721-3.675-5.847-6.469-6.526-10.763-.212-1.336-.171-2.635,1.442-3.195a2.834,2.834,0,0,1,3.611,1.588c1.188,2.243,2.423,4.47,3.821,6.583a2.618,2.618,0,0,0,2.1.8,34.688,34.688,0,0,0,3.676-.971,3.056,3.056,0,0,1,3.7,1.877,2.883,2.883,0,0,1-2.164,3.354,27.3,27.3,0,0,1-5.574,1.328,16.273,16.273,0,0,1-4.087-.6" transform="translate(11.948 71.162)" fill="#1c1505"/>
      </g>
    </g>
  </g>
</svg>
